<?xml version="1.0" encoding="utf-8"?>
<!-- Generator: Adobe Illustrator 18.1.0, SVG Export Plug-In . SVG Version: 6.00 Build 0)  -->
<!DOCTYPE svg PUBLIC "-//W3C//DTD SVG 1.1//EN" "http://www.w3.org/Graphics/SVG/1.1/DTD/svg11.dtd">
<svg version="1.1" xmlns="http://www.w3.org/2000/svg" xmlns:xlink="http://www.w3.org/1999/xlink" x="0px" y="0px"
	 viewBox="0 0 160 160" enable-background="new 0 0 160 160" xml:space="preserve">
<g id="город">
	<circle fill="#F2F2F2" cx="80" cy="80" r="80"/>
	<g id="Слой_2">
		<g>
			<defs>
				<circle id="SVGID_1_" cx="80" cy="80" r="80"/>
			</defs>
			<clipPath id="SVGID_2_">
				<use xlink:href="#SVGID_1_"  overflow="visible"/>
			</clipPath>
			<g clip-path="url(#SVGID_2_)">
				
					<line fill="none" stroke="#47A2C6" stroke-width="4" stroke-linecap="round" stroke-linejoin="round" stroke-miterlimit="10" x1="10.7" y1="76.7" x2="10.7" y2="83.6"/>
				
					<line fill="none" stroke="#47A2C6" stroke-width="4" stroke-linecap="round" stroke-linejoin="round" stroke-miterlimit="10" x1="10.1" y1="96.9" x2="10.1" y2="103.7"/>
				<g>
					<g>
						
							<polyline fill="none" stroke="#47A2C6" stroke-width="4" stroke-linecap="round" stroke-linejoin="round" stroke-miterlimit="10" points="
							142.8,23.2 112.9,23.2 112.9,80 78.4,80 78.4,100.9 						"/>
						
							<polygon fill="none" stroke="#47A2C6" stroke-width="4" stroke-linecap="round" stroke-linejoin="round" stroke-miterlimit="10" points="
							54.7,165.9 -3,165.9 -3,70.2 25.8,48.8 54.7,70.2 						"/>
						
							<path fill="none" stroke="#47A2C6" stroke-width="4" stroke-linecap="round" stroke-linejoin="round" stroke-miterlimit="10" d="
							M117.8,23.1c-1.1-4.5-5.1-7.9-9.9-7.9c-5.5,0-10.1,4.4-10.2,10c-1.3-2.3-3.7-3.9-6.6-3.9c-4.1,0-7.5,3.3-7.5,7.5
							c0,0,0,0,0,0.1C81.6,29.2,80,31,80,33.1c0,2.4,2,4.4,4.4,4.4h28.4"/>
						
							<path fill="none" stroke="#47A2C6" stroke-width="4" stroke-linecap="round" stroke-linejoin="round" stroke-miterlimit="10" d="
							M50.7,67H75c1.9,0,3.4-1.5,3.4-3.4c0-1.9-1.5-3.4-3.3-3.4c0,0,0,0,0,0c0-2.6-2.1-4.7-4.7-4.7c-1.1,0-2,0.4-2.8,0.9
							c0.1-0.6,0.2-1.3,0.2-1.9c0-5.4-4.3-9.7-9.7-9.7c-5.2,0-9.4,4-9.7,9.1c-0.6-0.2-1.2-0.3-1.8-0.3c-3.4,0-6.1,2.7-6.3,6"/>
						
							<polygon fill="none" stroke="#47A2C6" stroke-width="4" stroke-linecap="round" stroke-linejoin="round" stroke-miterlimit="10" points="
							124.8,195 67.1,195 67.1,109.3 96,87.8 124.8,109.3 						"/>
					</g>
					
						<line fill="none" stroke="#47A2C6" stroke-width="4" stroke-linecap="round" stroke-linejoin="round" stroke-miterlimit="10" x1="42.1" y1="76.7" x2="42.1" y2="83.6"/>
					
						<line fill="none" stroke="#47A2C6" stroke-width="4" stroke-linecap="round" stroke-linejoin="round" stroke-miterlimit="10" x1="36.1" y1="76.7" x2="36.1" y2="83.6"/>
					
						<line fill="none" stroke="#47A2C6" stroke-width="4" stroke-linecap="round" stroke-linejoin="round" stroke-miterlimit="10" x1="16.7" y1="76.7" x2="16.7" y2="83.6"/>
					
						<line fill="none" stroke="#47A2C6" stroke-width="4" stroke-linecap="round" stroke-linejoin="round" stroke-miterlimit="10" x1="41.6" y1="96.9" x2="41.6" y2="103.7"/>
					
						<line fill="none" stroke="#47A2C6" stroke-width="4" stroke-linecap="round" stroke-linejoin="round" stroke-miterlimit="10" x1="35.6" y1="96.9" x2="35.6" y2="103.7"/>
					
						<line fill="none" stroke="#47A2C6" stroke-width="4" stroke-linecap="round" stroke-linejoin="round" stroke-miterlimit="10" x1="16.1" y1="96.9" x2="16.1" y2="103.7"/>
					
						<line fill="none" stroke="#47A2C6" stroke-width="4" stroke-linecap="round" stroke-linejoin="round" stroke-miterlimit="10" x1="150.8" y1="38.4" x2="150.8" y2="45.2"/>
					
						<line fill="none" stroke="#47A2C6" stroke-width="4" stroke-linecap="round" stroke-linejoin="round" stroke-miterlimit="10" x1="144.8" y1="38.4" x2="144.8" y2="45.2"/>
					
						<line fill="none" stroke="#47A2C6" stroke-width="4" stroke-linecap="round" stroke-linejoin="round" stroke-miterlimit="10" x1="131.4" y1="38.4" x2="131.4" y2="45.2"/>
					
						<line fill="none" stroke="#47A2C6" stroke-width="4" stroke-linecap="round" stroke-linejoin="round" stroke-miterlimit="10" x1="125.4" y1="38.4" x2="125.4" y2="45.2"/>
					
						<line fill="none" stroke="#47A2C6" stroke-width="4" stroke-linecap="round" stroke-linejoin="round" stroke-miterlimit="10" x1="150.8" y1="59" x2="150.8" y2="65.9"/>
					
						<line fill="none" stroke="#47A2C6" stroke-width="4" stroke-linecap="round" stroke-linejoin="round" stroke-miterlimit="10" x1="144.8" y1="59" x2="144.8" y2="65.9"/>
					
						<line fill="none" stroke="#47A2C6" stroke-width="4" stroke-linecap="round" stroke-linejoin="round" stroke-miterlimit="10" x1="131.4" y1="59" x2="131.4" y2="65.9"/>
					
						<line fill="none" stroke="#47A2C6" stroke-width="4" stroke-linecap="round" stroke-linejoin="round" stroke-miterlimit="10" x1="125.4" y1="59" x2="125.4" y2="65.9"/>
					
						<line fill="none" stroke="#47A2C6" stroke-width="4" stroke-linecap="round" stroke-linejoin="round" stroke-miterlimit="10" x1="150.8" y1="87.2" x2="150.8" y2="94"/>
					
						<line fill="none" stroke="#47A2C6" stroke-width="4" stroke-linecap="round" stroke-linejoin="round" stroke-miterlimit="10" x1="144.8" y1="87.2" x2="144.8" y2="94"/>
					
						<line fill="none" stroke="#47A2C6" stroke-width="4" stroke-linecap="round" stroke-linejoin="round" stroke-miterlimit="10" x1="131.4" y1="87.2" x2="131.4" y2="94"/>
					
						<line fill="none" stroke="#47A2C6" stroke-width="4" stroke-linecap="round" stroke-linejoin="round" stroke-miterlimit="10" x1="125.4" y1="87.2" x2="125.4" y2="94"/>
				</g>
			</g>
		</g>
		
			<line fill="none" stroke="#47A2C6" stroke-width="4" stroke-linecap="round" stroke-linejoin="round" stroke-miterlimit="10" x1="108.6" y1="115.3" x2="108.6" y2="122.1"/>
		
			<line fill="none" stroke="#47A2C6" stroke-width="4" stroke-linecap="round" stroke-linejoin="round" stroke-miterlimit="10" x1="102.6" y1="115.3" x2="102.6" y2="122.1"/>
		
			<line fill="none" stroke="#47A2C6" stroke-width="4" stroke-linecap="round" stroke-linejoin="round" stroke-miterlimit="10" x1="89.2" y1="115.3" x2="89.2" y2="122.1"/>
		
			<line fill="none" stroke="#47A2C6" stroke-width="4" stroke-linecap="round" stroke-linejoin="round" stroke-miterlimit="10" x1="83.2" y1="115.3" x2="83.2" y2="122.1"/>
		
			<line fill="none" stroke="#47A2C6" stroke-width="4" stroke-linecap="round" stroke-linejoin="round" stroke-miterlimit="10" x1="108.6" y1="135.9" x2="108.6" y2="142.8"/>
		
			<line fill="none" stroke="#47A2C6" stroke-width="4" stroke-linecap="round" stroke-linejoin="round" stroke-miterlimit="10" x1="102.6" y1="135.9" x2="102.6" y2="142.8"/>
		
			<line fill="none" stroke="#47A2C6" stroke-width="4" stroke-linecap="round" stroke-linejoin="round" stroke-miterlimit="10" x1="89.2" y1="135.9" x2="89.2" y2="142.8"/>
		
			<line fill="none" stroke="#47A2C6" stroke-width="4" stroke-linecap="round" stroke-linejoin="round" stroke-miterlimit="10" x1="83.2" y1="135.9" x2="83.2" y2="142.8"/>
	</g>
</g>
<g id="образование">
</g>
<g id="др">
</g>
</svg>
