<?xml version="1.0" encoding="utf-8"?>
<!-- Generator: Adobe Illustrator 18.1.0, SVG Export Plug-In . SVG Version: 6.00 Build 0)  -->
<!DOCTYPE svg PUBLIC "-//W3C//DTD SVG 1.1//EN" "http://www.w3.org/Graphics/SVG/1.1/DTD/svg11.dtd">
<svg version="1.1" xmlns="http://www.w3.org/2000/svg" xmlns:xlink="http://www.w3.org/1999/xlink" x="0px" y="0px"
	 viewBox="0 0 160 160" enable-background="new 0 0 160 160" xml:space="preserve">
<g id="город">
	<g id="Слой_2">
	</g>
</g>
<g id="образование">
</g>
<g id="др">
	<circle fill="#F2F2F2" cx="80" cy="80" r="80"/>
	<g>
		<path fill="none" stroke="#47A2C6" stroke-width="4" stroke-linecap="round" stroke-linejoin="round" stroke-miterlimit="10" d="
			M55.8,86.2c0-5.3,4.3-9.5,9.5-9.5s9.5,4.3,9.5,9.5c0,5.3-4.3,9.5-9.5,9.5c-2.6,0-5-1.1-6.7-2.8S55.8,88.9,55.8,86.2z"/>
		<path fill="none" stroke="#47A2C6" stroke-width="4" stroke-linecap="round" stroke-linejoin="round" stroke-miterlimit="10" d="
			M74.8,86.2c0,0,1.1-2.2-4-9c-3.3-4.3-3.3-10.8-3.3-10.8c0-8.6,7-15.6,15.6-15.6s15.6,7,15.6,15.6c0,0-0.1,9.2-4.9,16.2
			c-8.1,11.7-7.4,17.6-7.4,17.6c0,4.9,4,8.9,8.9,8.9s8.9-4,8.9-8.9"/>
	</g>
</g>
</svg>
