<?xml version="1.0" encoding="utf-8"?>
<!-- Generator: Adobe Illustrator 18.1.0, SVG Export Plug-In . SVG Version: 6.00 Build 0)  -->
<!DOCTYPE svg PUBLIC "-//W3C//DTD SVG 1.1//EN" "http://www.w3.org/Graphics/SVG/1.1/DTD/svg11.dtd">
<svg version="1.1" xmlns="http://www.w3.org/2000/svg" xmlns:xlink="http://www.w3.org/1999/xlink" x="0px" y="0px"
	 viewBox="0 0 160 160" enable-background="new 0 0 160 160" xml:space="preserve">
<g id="город">
	<g id="Слой_2">
	</g>
</g>
<g id="образование">
</g>
<g id="др">
	<circle fill="#F2F2F2" cx="80" cy="80" r="80"/>
	<g>
		<path fill="none" stroke="#47A2C6" stroke-width="4" stroke-linecap="round" stroke-linejoin="round" stroke-miterlimit="10" d="
			M59.9,96.6V59.1c0-4.7-3.9-8.6-8.6-8.6h0c-4.7,0-8.6,3.9-8.6,8.6"/>
		<path fill="none" stroke="#47A2C6" stroke-width="4" stroke-linecap="round" stroke-linejoin="round" stroke-miterlimit="10" d="
			M77.2,96.6V59.1c0-4.7-3.9-8.6-8.6-8.6h0c-4.7,0-8.6,3.9-8.6,8.6v37.6"/>
		<path fill="none" stroke="#47A2C6" stroke-width="4" stroke-linecap="round" stroke-linejoin="round" stroke-miterlimit="10" d="
			M77.2,96.6V59.1c0-4.7,3.9-8.6,8.6-8.6h0c4.7,0,8.6,3.9,8.6,8.6c0,0,0,30.9,0,30.9c0,6.3,5.1,11.3,11.3,11.3h11.5"/>
		
			<polyline fill="none" stroke="#47A2C6" stroke-width="4" stroke-linecap="round" stroke-linejoin="round" stroke-miterlimit="10" points="
			109,92.9 117.3,101.2 109,109.6 		"/>
	</g>
</g>
</svg>
