<?xml version="1.0" standalone="no"?>
<!DOCTYPE svg PUBLIC "-//W3C//DTD SVG 1.1//EN" "http://www.w3.org/Graphics/SVG/1.1/DTD/svg11.dtd" >
<svg xmlns="http://www.w3.org/2000/svg" xmlns:xlink="http://www.w3.org/1999/xlink" version="1.1">
<metadata></metadata>
<defs>
<font id="chevin_proextrabold" horiz-adv-x="1146" >
<font-face units-per-em="2048" ascent="1536" descent="-512" />
<missing-glyph horiz-adv-x="643" />
<glyph horiz-adv-x="0" />
<glyph horiz-adv-x="682" />
<glyph unicode=" "  horiz-adv-x="643" />
<glyph unicode="&#x09;" horiz-adv-x="643" />
<glyph unicode="&#xa0;" horiz-adv-x="643" />
<glyph unicode="!" horiz-adv-x="677" d="M145 184q0 85 59 145t144 60t145 -60t60 -145q0 -84 -60 -143t-145 -59t-144 58.5t-59 143.5zM186 1331q-5 76 39 128t123 52q81 0 125 -52t39 -128l-37 -674q-5 -81 -33 -119t-94 -38q-65 0 -92.5 38t-32.5 119z" />
<glyph unicode="&#x22;" horiz-adv-x="919" d="M70 1339q-8 70 29 121t114 51q79 0 116 -51t29 -121l-26 -213q-10 -72 -35 -104.5t-84 -32.5q-58 0 -82.5 32t-34.5 105zM526 1339q-8 70 30.5 121t115.5 51t114 -51t29 -121l-27 -213q-8 -72 -32.5 -104.5t-83.5 -32.5t-84 32.5t-35 104.5z" />
<glyph unicode="#" horiz-adv-x="1474" d="M31 459q0 62 43 105.5t106 43.5h113l43 277h-68q-63 0 -106 43t-43 106q0 62 43 105t106 43h113l31 204q9 60 58.5 96t109.5 27q60 -10 94.5 -59t25.5 -109l-24 -159h254l31 204q9 60 58 96t109 27q60 -11 96 -59.5t27 -108.5l-24 -159h67q62 0 106 -43.5t44 -104.5 q0 -63 -44 -106t-106 -43h-112l-43 -277h67q63 0 106.5 -43.5t43.5 -105.5t-43.5 -106t-106.5 -44h-112l-31 -205q-9 -60 -58.5 -94.5t-109.5 -25.5t-95 58.5t-26 109.5l25 157h-254l-31 -205q-9 -60 -58.5 -94.5t-109.5 -25.5t-96 58.5t-27 109.5l25 157h-68q-61 0 -105 44 t-44 106zM590 608h254l41 277h-254z" />
<glyph unicode="$" d="M45 188q0 63 38.5 108.5t102.5 45.5q28 0 81 -18t75 -23q72 -20 166 -20q262 0 262 157q0 57 -40 89t-163 63q-22 6 -79 20.5t-94.5 25t-84.5 27.5t-76 35q-174 105 -174 328q0 188 104.5 309.5t274.5 159.5v98q0 51 36.5 88t88.5 37t88.5 -37t36.5 -88v-86 q132 -7 225 -39q56 -18 85.5 -58.5t29.5 -88.5q0 -64 -40.5 -110t-110.5 -46q-19 0 -38 4t-46.5 13.5t-44.5 13.5q-58 14 -136 14q-108 0 -165.5 -36t-57.5 -103q0 -65 43 -95t158 -58q5 -1 54 -12.5t65 -15.5t58 -15t63.5 -19t50 -19.5t47.5 -23.5q174 -108 174 -336 q0 -204 -112.5 -325.5t-301.5 -157.5v-94q0 -52 -36 -88.5t-89 -36.5t-89 36.5t-36 88.5v84q-164 10 -280 51q-56 19 -84.5 61t-28.5 92z" />
<glyph unicode="%" horiz-adv-x="1259" d="M102 1159v121q0 112 71 171.5t175 59.5q101 0 171.5 -59.5t70.5 -171.5v-121q0 -113 -70 -173t-172 -60q-104 0 -175 59.5t-71 173.5zM291 1155q0 -65 57 -65q55 0 55 65v125q0 66 -55 66q-57 0 -57 -66v-125zM293 102l502 1352q13 34 47 48.5t69 2.5q34 -13 49 -46.5 t3 -67.5l-504 -1352q-12 -35 -46 -50t-69 -1q-34 12 -48.5 45.5t-2.5 68.5zM668 213v121q0 114 70 173.5t173 59.5q104 0 175 -59.5t71 -173.5v-121q0 -112 -71 -171.5t-175 -59.5q-103 0 -173 59.5t-70 171.5zM856 211q0 -66 55 -66q58 0 58 66v125q0 65 -58 65 q-55 0 -55 -65v-125z" />
<glyph unicode="&#x26;" horiz-adv-x="1312" d="M100 416q0 72 22 137t62.5 117.5t83 92t97.5 79.5q-123 160 -123 319q0 91 34.5 160.5t93.5 109.5t130 60t151 20q151 0 250 -55q123 -68 123 -186q0 -65 -43.5 -109.5t-103.5 -44.5q-43 0 -68 14q-24 16 -41 33q-45 45 -69 57q-23 11 -46 11q-34 0 -58 -23t-24 -67 q0 -60 68 -146l301 -385q12 42 18 80q9 59 51.5 97t100.5 38q63 0 107.5 -44t44.5 -107q0 -50 -33 -152t-82 -178l82 -104q37 -54 37 -103q0 -64 -45.5 -109.5t-110.5 -45.5q-79 0 -127 65l-47 62q-173 -127 -389 -127q-111 0 -198 36t-140.5 97t-81 138t-27.5 163zM408 428 q0 -78 45 -117t116 -39q98 0 187 68l-213 274q-135 -84 -135 -186z" />
<glyph unicode="'" horiz-adv-x="495" d="M104 1339q-10 69 28 120.5t116 51.5t115.5 -51.5t27.5 -120.5l-26 -213q-8 -72 -33 -104.5t-84 -32.5t-84 32.5t-33 104.5z" />
<glyph unicode="(" horiz-adv-x="745" d="M82 657q0 259 59.5 507t192.5 448q51 78 131 78q67 0 112.5 -45.5t45.5 -116.5q0 -60 -29 -119q-180 -343 -180 -752q0 -406 180 -749q29 -59 29 -119q0 -71 -45.5 -116.5t-112.5 -45.5q-80 0 -131 78q-133 200 -192.5 447t-59.5 505z" />
<glyph unicode=")" horiz-adv-x="745" d="M123 -211q0 64 31 119q180 343 180 749q0 409 -180 752q-31 55 -31 119q0 71 46 116.5t112 45.5q80 0 133 -78q132 -200 191 -448t59 -507q0 -257 -59 -504.5t-191 -447.5q-53 -78 -133 -78q-66 0 -112 45.5t-46 116.5z" />
<glyph unicode="*" horiz-adv-x="999" d="M98 1219q19 57 67 73.5t93 -8.5l152 -72l-21 168q-6 53 22.5 92t88.5 39t88 -38.5t22 -92.5l-22 -168l153 72q45 25 92.5 8.5t65.5 -73.5q19 -56 -9 -95t-81 -49l-166 -33l117 -122q23 -25 32 -55t-1.5 -61.5t-42.5 -53.5q-53 -33 -96 -20t-70 61l-82 147l-82 -147 q-27 -48 -70 -61t-96 20q-32 22 -42.5 53.5t-1.5 61.5t32 55l114 122l-164 33q-54 10 -82 49t-10 95z" />
<glyph unicode="+" horiz-adv-x="1222" d="M133 592q0 61 44 104t106 43h180v181q0 62 43 105.5t104 43.5q62 0 106 -44t44 -105v-181h180q62 0 106 -43t44 -104q0 -62 -44 -106t-106 -44h-180v-180q0 -61 -44 -105t-106 -44q-61 0 -104 43.5t-43 105.5v180h-180q-61 0 -105.5 44t-44.5 106z" />
<glyph unicode="," horiz-adv-x="653" d="M123 180q0 87 61 148t148 61q94 0 151.5 -71t57.5 -181q0 -95 -28 -177.5t-69 -135.5t-88 -91.5t-85.5 -55.5t-61.5 -17q-31 0 -53.5 17.5t-22.5 52.5q0 25 14.5 45t37 36.5t46 35.5t44.5 51.5t30 74.5q-77 9 -129.5 68.5t-52.5 138.5z" />
<glyph unicode="-" horiz-adv-x="1060" d="M113 602q0 60 43 104t104 44h541q61 0 104 -44t43 -104q0 -62 -43 -104.5t-104 -42.5h-541q-62 0 -104.5 42.5t-42.5 104.5z" />
<glyph unicode="." horiz-adv-x="653" d="M123 184q0 85 59 145t144 60t144.5 -60t59.5 -145t-59.5 -143.5t-144.5 -58.5t-144 58.5t-59 143.5z" />
<glyph unicode="/" horiz-adv-x="768" d="M8 35l484 1511q19 58 73 85.5t113 8.5q57 -19 85 -73t9 -111l-485 -1513q-19 -57 -73 -85.5t-112 -9.5q-58 20 -85.5 74t-8.5 113z" />
<glyph unicode="0" d="M74 514v465q0 234 134.5 383t364.5 149t365 -149t135 -383v-465q0 -235 -135 -383.5t-365 -148.5t-364.5 148.5t-134.5 383.5zM403 502q0 -117 47.5 -169t122.5 -52t122.5 52t47.5 169v487q0 117 -48 169t-122 52q-75 0 -122.5 -52.5t-47.5 -168.5v-487z" />
<glyph unicode="1" d="M60.5 1097q13.5 64 68.5 99l438 285q55 30 99 30q68 0 116.5 -48.5t48.5 -116.5v-1033h123q66 0 112 -45t46 -110q0 -66 -46 -112t-112 -46h-714q-65 0 -110.5 46t-45.5 112q0 64 45.5 109.5t110.5 45.5h260v750l-201 -131q-54 -35 -118 -21.5t-99 68.5q-35 54 -21.5 118 z" />
<glyph unicode="2" d="M84 158q0 167 61.5 280.5t178.5 214.5q44 39 107.5 85t108 78.5t87.5 71.5t65.5 81.5t22.5 89.5q0 61 -38.5 106t-119.5 45q-95 0 -172 -45q-10 -6 -28.5 -18t-28.5 -18t-25.5 -13.5t-30.5 -10.5t-32 -3q-62 0 -109 44.5t-47 110.5q0 77 59 121q174 133 426 133 q101 0 183.5 -28t136 -73.5t90.5 -105.5t52.5 -121.5t15.5 -123.5q0 -85 -26.5 -157.5t-70.5 -126t-98.5 -99.5t-115 -88t-114.5 -81.5t-102 -89t-74 -102.5h443q66 0 112 -46t46 -111q0 -66 -46.5 -112t-111.5 -46h-647q-70 0 -114 44.5t-44 113.5z" />
<glyph unicode="3" d="M98 203q0 60 39 100.5t96 40.5q45 0 103 -37q62 -39 147 -39q88 0 141.5 49t53.5 138q0 168 -191 168q-168 0 -168 141q0 74 52.5 106.5t126.5 32.5q94 0 146 34.5t52 117.5q0 73 -40 118.5t-126 45.5q-88 0 -163 -45l-9 -6q-8 -5 -9 -5.5t-9 -5t-10.5 -5.5t-10.5 -5 t-12 -5t-11.5 -3.5t-13.5 -3t-13.5 -1.5t-14.5 -1q-52 0 -90.5 36.5t-38.5 102.5q0 86 86 149q48 37 134 63.5t200 26.5q96 0 174.5 -26t128.5 -67.5t84 -95.5t48.5 -107.5t14.5 -106.5q0 -125 -51 -208.5t-162 -129.5q232 -84 232 -358q0 -83 -32 -158.5t-93.5 -137 t-162 -98t-226.5 -36.5q-239 0 -344 98q-58 58 -58 123z" />
<glyph unicode="4" d="M41 379q0 31 18 76l400 958q26 63 89 88.5t124 -0.5q62 -26 87 -90t-1 -127l-314 -752h166v111q0 66 47 113t113 47q67 0 113.5 -47t46.5 -113v-111h28q62 0 106 -44.5t44 -108.5q0 -63 -44.5 -108.5t-105.5 -45.5h-28v-84q0 -66 -46.5 -112.5t-113.5 -46.5 q-66 0 -113 46.5t-47 112.5v84h-417q-63 0 -107.5 44.5t-44.5 109.5z" />
<glyph unicode="5" d="M113 205q0 63 42 110t105 47q47 0 90 -28q2 -1 15.5 -9t23 -13.5t27.5 -13.5t34 -13t37.5 -9t42.5 -4q168 0 168 209q0 96 -39.5 143.5t-93.5 47.5q-34 0 -64.5 -10t-43 -18t-39.5 -28q-21 -15 -33 -22t-32.5 -14t-41.5 -7q-68 0 -113 45.5t-42 118.5l20 602 q3 66 50.5 110t107.5 44h477q64 0 110 -46.5t46 -111.5t-46 -111t-110 -46h-338l-10 -244q68 18 133 18q197 0 315.5 -125.5t118.5 -345.5q0 -99 -30 -186.5t-89 -158.5t-157 -112.5t-224 -41.5q-201 0 -333 79q-84 56 -84 144z" />
<glyph unicode="6" d="M78 549q0 123 36.5 252t100.5 246t139.5 219t163.5 192q53 53 117 53q73 0 120.5 -48.5t47.5 -116.5q0 -62 -51 -113q-135 -135 -230 -309q50 4 78 4q94 0 177.5 -29t149 -84t104 -144.5t38.5 -201.5q0 -222 -141.5 -354.5t-364.5 -132.5q-118 0 -212.5 47.5t-153 127.5 t-89 180.5t-30.5 211.5zM410 549q0 -72 14.5 -126.5t39 -84t51 -43.5t54.5 -14q168 0 168 178q0 82 -42 133t-132 51q-83 0 -151 -41q-2 -16 -2 -53z" />
<glyph unicode="7" d="M51 1335q0 65 46 111.5t112 46.5h704q64 0 110 -46.5t46 -111.5q0 -38 -16 -84l-449 -1163q-25 -64 -87.5 -92.5t-125.5 -3.5q-65 25 -93 88t-3 127l391 971h-477q-66 0 -112 46t-46 111z" />
<glyph unicode="8" d="M66 403q0 114 55 203t174 162q-166 124 -166 342q0 186 119 293.5t321 107.5q200 0 319.5 -108.5t119.5 -276.5q0 -84 -32.5 -158t-131.5 -149q56 -34 95.5 -69.5t73.5 -84t51 -113t17 -144.5q0 -86 -32 -162t-93 -135.5t-158.5 -94t-219.5 -34.5q-253 0 -382.5 116 t-129.5 305zM395 446q0 -83 49 -128.5t123 -45.5q81 0 132 45t51 119q0 30 -10.5 55.5t-27 44t-45.5 37.5t-56.5 32.5t-69.5 31.5q-65 -33 -105.5 -85t-40.5 -106zM446 1092q0 -59 39 -97t115 -71q94 64 94 159q0 69 -32.5 105.5t-88.5 36.5q-57 0 -92 -36.5t-35 -96.5z" />
<glyph unicode="9" d="M78 1024q0 222 141.5 354.5t364.5 132.5q118 0 212.5 -47.5t153 -127.5t89 -181t30.5 -213q0 -161 -65.5 -334.5t-160.5 -312.5t-214 -262q-51 -51 -117 -51q-73 0 -120.5 48.5t-47.5 114.5q0 62 51 113q133 133 230 311q-37 -6 -78 -6q-94 0 -177.5 29t-149 85 t-104 145.5t-38.5 201.5zM410 1032q0 -80 42 -131t132 -51q92 0 151 41q2 16 2 51q0 140 -48 204t-111 64q-168 0 -168 -178z" />
<glyph unicode=":" horiz-adv-x="653" d="M123 184q0 85 59 145t144 60t144.5 -60t59.5 -145t-59.5 -143.5t-144.5 -58.5t-144 58.5t-59 143.5zM123 887q0 85 59 145t144 60t144.5 -60t59.5 -145t-59.5 -144t-144.5 -59t-144 59t-59 144z" />
<glyph unicode=";" horiz-adv-x="653" d="M123 180q0 87 61 148t148 61q94 0 151.5 -71t57.5 -181q0 -95 -28 -177.5t-69 -135.5t-88 -91.5t-85.5 -55.5t-61.5 -17q-31 0 -53.5 17.5t-22.5 52.5q0 25 14.5 45t37 36.5t46 35.5t44.5 51.5t30 74.5q-77 9 -129.5 68.5t-52.5 138.5zM123 887q0 85 59 145t144 60 t144.5 -60t59.5 -145t-59.5 -144t-144.5 -59t-144 59t-59 144z" />
<glyph unicode="&#x3c;" horiz-adv-x="1234" d="M139 561q0 38 19.5 71t54.5 50l680 336q51 26 104.5 9.5t79.5 -66.5q28 -50 11.5 -104.5t-66.5 -80.5l-455 -215l455 -215q51 -25 67 -80t-12 -104q-27 -50 -80 -66.5t-104 10.5l-680 334q-35 19 -54.5 51.5t-19.5 69.5z" />
<glyph unicode="=" horiz-adv-x="1284" d="M164 350q0 62 44 106t105 44h658q61 0 105 -44t44 -106t-44 -105.5t-105 -43.5h-658q-61 0 -105 43.5t-44 105.5zM164 879q0 61 44 105t105 44h658q61 0 105 -44t44 -105q0 -62 -44 -106t-105 -44h-658q-61 0 -105 44t-44 106z" />
<glyph unicode="&#x3e;" horiz-adv-x="1234" d="M146 266q16 55 67 80l455 215l-455 215q-51 23 -67 79.5t12 105.5q26 50 79.5 66.5t104.5 -9.5l680 -336q35 -17 54.5 -50t19.5 -71q0 -37 -19.5 -69.5t-54.5 -51.5l-680 -334q-53 -26 -105.5 -10t-78.5 66q-28 49 -12 104z" />
<glyph unicode="?" horiz-adv-x="1019" d="M82 1296q0 86 96 144q67 35 136 52t167 17q80 0 155 -21.5t139.5 -64.5t103.5 -117.5t39 -170.5q0 -58 -16.5 -109.5t-48.5 -93.5t-62 -71t-72 -62q-92 -69 -116.5 -103.5t-24.5 -83.5q0 -58 -41 -96.5t-107 -38.5q-68 0 -108.5 41t-40.5 111q0 95 29 150t116 122 q9 7 40 30.5t40 31.5t30 28t28 33t14.5 33t7.5 41q0 129 -146 129q-23 0 -45.5 -5.5t-31.5 -9.5t-32.5 -17.5t-25.5 -14.5q-44 -19 -74 -19q-70 0 -109.5 41.5t-39.5 93.5zM227 184q0 85 59 145t144 60t145 -60t60 -145q0 -84 -60 -143t-145 -59t-144 58.5t-59 143.5z" />
<glyph unicode="@" horiz-adv-x="1675" d="M127 623q0 113 28 222.5t88 210t143.5 176.5t203.5 121.5t260 45.5q151 0 272 -35.5t199 -94t130.5 -139t74.5 -166t22 -178.5q0 -94 -26 -178t-74.5 -149.5t-126 -104.5t-172.5 -39q-155 0 -225 111q-35 -50 -90.5 -78.5t-116.5 -28.5q-104 0 -155.5 71.5t-51.5 182.5 q0 190 106 323.5t265 133.5q87 0 194 -29q39 -12 51.5 -45.5t6.5 -64.5l-46 -201q-8 -39 -8 -98q0 -113 95 -113q62 0 107 46.5t65 112.5t20 140q0 98 -29 178.5t-88.5 143.5t-159.5 98t-233 35q-113 0 -207 -39.5t-154.5 -102.5t-103 -143.5t-60.5 -160t-18 -154.5 q0 -245 122 -387t368 -142q94 0 184 17q31 7 67 20t52 13q40 0 62 -24t22 -58q0 -69 -98 -95q-135 -38 -289 -38q-323 0 -499.5 184t-176.5 500zM733 592q0 -53 45 -53q28 0 50 29.5t40 101.5l43 172q-20 4 -41 4q-53 0 -95 -82.5t-42 -171.5z" />
<glyph unicode="A" horiz-adv-x="1196" d="M25 182q126 587 358 1161q69 170 213 170q150 0 219 -170q228 -563 356 -1161q5 -23 5 -44q0 -58 -38 -100q-52 -56 -130 -56q-57 0 -101.5 33t-58.5 98q-13 64 -41 178h-426q-28 -114 -41 -178q-14 -64 -57.5 -97.5t-98.5 -33.5q-74 0 -126 56q-38 41 -38 99q0 21 5 45z M459 584h270q-60 206 -135 413q-75 -207 -135 -413z" />
<glyph unicode="B" horiz-adv-x="1325" d="M154 166v1161q0 68 48 117t117 49h379q124 0 217 -32.5t145 -87.5t76.5 -119t24.5 -136v-55q0 -99 -43 -176.5t-133 -118.5q76 -25 129.5 -79.5t76.5 -116.5t23 -128v-57q0 -82 -25 -149.5t-77.5 -122t-144.5 -85t-215 -30.5h-433q-69 0 -117 48.5t-48 117.5zM485 303 h260q66 0 103 37t37 92v39q0 55 -39 91t-109 36h-252v-295zM485 889h177q71 0 119 31t48 98v49q0 55 -37 87t-100 32h-207v-297z" />
<glyph unicode="C" horiz-adv-x="1116" d="M127 635v225q0 144 30.5 259t95.5 204.5t175 138.5t260 49q83 0 168.5 -22t134.5 -59q72 -52 72 -123q0 -59 -40.5 -103.5t-109.5 -44.5q-35 0 -96 27q-54 28 -129 28q-115 0 -172 -84t-57 -280v-211q0 -104 15 -175t45 -110.5t68.5 -56t92.5 -16.5q80 0 149 32 q55 25 93 25q56 0 95.5 -38.5t39.5 -98.5q0 -75 -66 -127q-52 -44 -144.5 -68t-166.5 -24q-146 0 -253.5 47t-172.5 135t-96 205t-31 266z" />
<glyph unicode="D" horiz-adv-x="1355" d="M154 166v1161q0 68 48 117t117 49h383q131 0 229 -37t153.5 -92t89.5 -133.5t44.5 -147t10.5 -145.5v-385q0 -78 -10.5 -146.5t-44.5 -146t-89.5 -132.5t-153.5 -91.5t-229 -36.5h-383q-69 0 -117 48.5t-48 117.5zM485 309h191q125 0 173 57.5t48 186.5v381 q0 129 -48.5 186.5t-172.5 57.5h-191v-869z" />
<glyph unicode="E" horiz-adv-x="1173" d="M154 158v1177q0 65 45.5 111.5t111.5 46.5h615q66 0 111.5 -46.5t45.5 -111.5q0 -66 -45.5 -111.5t-111.5 -45.5h-441v-279h398q63 0 108 -45.5t45 -108.5t-45 -107t-108 -44h-398v-279h467q64 0 110 -46t46 -111q0 -66 -45.5 -112t-110.5 -46h-641q-66 0 -111.5 46 t-45.5 112z" />
<glyph unicode="F" horiz-adv-x="1095" d="M154 147v1188q0 65 45.5 111.5t111.5 46.5h602q64 0 110 -46.5t46 -111.5q0 -66 -45.5 -111.5t-110.5 -45.5h-428v-279h351q63 0 107 -45.5t44 -108.5t-44 -107t-107 -44h-351v-447q0 -69 -48.5 -117t-117.5 -48t-117 48t-48 117z" />
<glyph unicode="G" horiz-adv-x="1300" d="M127 635v225q0 144 30.5 259t95.5 204.5t175 138.5t260 49q87 0 174 -22t139 -62q74 -54 74 -127q0 -59 -39.5 -101t-109.5 -42q-45 0 -107 29q-62 28 -131 28q-115 0 -172 -84t-57 -280v-211q0 -104 15 -175.5t44.5 -111t68.5 -56.5t93 -17q59 0 98.5 16t59 47.5 t27 65.5t7.5 81v41h-79q-63 0 -107.5 45.5t-44.5 108.5t44.5 108.5t107.5 45.5h243q69 0 113.5 -46.5t44.5 -119.5v-172q0 -81 -16 -153.5t-54.5 -140t-96 -116.5t-146.5 -78.5t-201 -29.5q-146 0 -253.5 47t-172.5 135t-96 205t-31 266z" />
<glyph unicode="H" horiz-adv-x="1427" d="M154 147v1199q0 68 48 116.5t117 48.5t117.5 -48.5t48.5 -116.5v-467h459v467q0 68 48.5 116.5t117.5 48.5q67 0 115.5 -48.5t48.5 -116.5v-1199q0 -69 -48 -117t-116 -48q-69 0 -117.5 48t-48.5 117v441h-459v-441q0 -69 -48.5 -117t-117.5 -48t-117 48t-48 117z" />
<glyph unicode="I" horiz-adv-x="638" d="M154 147v1199q0 68 48 116.5t117 48.5t117.5 -48.5t48.5 -116.5v-1199q0 -69 -48.5 -117t-117.5 -48t-117 48t-48 117z" />
<glyph unicode="J" horiz-adv-x="978" d="M4 143q0 69 40.5 113.5t111.5 44.5q22 0 63 -6q29 -2 92 -2q121 0 165 58t44 210v785q0 68 48.5 116.5t117.5 48.5q68 0 117 -49t49 -116v-785q0 -101 -17 -185.5t-57 -158.5t-101 -125t-154 -80.5t-212 -29.5q-87 0 -172 10q-66 10 -100.5 52.5t-34.5 98.5z" />
<glyph unicode="K" horiz-adv-x="1255" d="M154 147v1199q0 68 48 116.5t117 48.5t117.5 -48.5t48.5 -116.5v-408l406 514q47 59 125 59q71 0 116.5 -46.5t45.5 -116.5q0 -61 -39 -103l-316 -358q207 -301 385 -666q19 -43 19 -76q0 -69 -51 -116t-121 -47q-44 0 -83 23.5t-63 70.5q-142 294 -311 553l-113 -127 v-355q0 -69 -48.5 -117t-117.5 -48t-117 48t-48 117z" />
<glyph unicode="L" horiz-adv-x="1130" d="M154 158v1188q0 68 48 116.5t117 48.5t117.5 -48.5t48.5 -116.5v-1031h457q66 0 112 -46t46 -111q0 -66 -46 -112t-112 -46h-631q-66 0 -111.5 46t-45.5 112z" />
<glyph unicode="M" horiz-adv-x="1669" d="M154 133v1225q0 67 45 110t110 43q62 0 98 -22t64 -76l365 -727l370 737q44 88 154 88q66 0 111 -45t45 -108v-1223q0 -64 -44.5 -108.5t-109.5 -44.5q-63 0 -107.5 44.5t-44.5 108.5v651l-227 -467q-49 -98 -149 -98q-46 0 -86 24t-64 72l-227 469v-653 q0 -63 -44.5 -107t-107.5 -44t-107 44t-44 107z" />
<glyph unicode="N" horiz-adv-x="1380" d="M154 133v1227q0 64 44 107.5t117 43.5q108 0 160 -86l449 -755v690q0 62 44 106.5t107 44.5t107.5 -44.5t44.5 -106.5v-1227q0 -64 -45 -107.5t-115 -43.5q-110 0 -160 79l-450 760v-688q0 -63 -44.5 -107t-107.5 -44t-107 44t-44 107z" />
<glyph unicode="O" horiz-adv-x="1343" d="M127 535v423q0 88 17 166t57.5 150t102 123.5t155.5 82.5t213 31q118 0 212 -31t155.5 -82.5t102 -123.5t58 -150t17.5 -166v-423q0 -88 -17.5 -166t-58 -150.5t-102 -124.5t-155.5 -83t-212 -31q-119 0 -213 31t-155.5 83t-102 124.5t-57.5 150.5t-17 166zM459 535 q0 -128 46 -192t167 -64q120 0 166.5 64.5t46.5 191.5v423q0 125 -46 188.5t-167 63.5t-167 -63t-46 -189v-423z" />
<glyph unicode="P" horiz-adv-x="1243" d="M154 147v1180q0 68 48 117t117 49h386q104 0 185.5 -25t133.5 -66.5t86 -98t47.5 -116t13.5 -124.5v-107q0 -192 -120 -306.5t-336 -114.5h-230v-388q0 -69 -48.5 -117t-117.5 -48t-117 48t-48 117zM485 836h215q142 0 142 127v92q0 58 -36 92.5t-132 34.5h-189v-346z " />
<glyph unicode="Q" horiz-adv-x="1343" d="M127 535v423q0 88 17 166t57.5 150t102 123.5t155.5 82.5t213 31q118 0 212 -31t155.5 -82.5t102 -123.5t58 -150t17.5 -166v-423q0 -160 -60 -289l90 -82q48 -47 48 -102q0 -57 -46 -103q-43 -45 -98 -48h-7q-51 0 -100 44l-83 88q-117 -63 -289 -63q-119 0 -213 31 t-155.5 83t-102 124.5t-57.5 150.5t-17 166zM459 535q0 -128 46 -192t167 -64q21 0 53 4q-34 43 -34 93q0 49 36 87q33 33 76 39q10 1 19 1q33 0 63 -16v471q0 125 -46 188.5t-167 63.5t-167 -63t-46 -189v-423z" />
<glyph unicode="R" horiz-adv-x="1288" d="M154 147v1180q0 68 48 117t117 49h383q233 0 354.5 -108t121.5 -322v-78q0 -247 -203 -356q112 -201 205 -414q17 -39 17 -74q-1 -49 -33 -89q-56 -70 -142 -70q-102 0 -145 100q-119 267 -246 481h-146v-416q0 -69 -48.5 -117t-117.5 -48t-117 48t-48 117zM485 864h199 q162 0 162 121v78q0 121 -150 121h-211v-320z" />
<glyph unicode="S" horiz-adv-x="1208" d="M82 188q0 63 38.5 108.5t102.5 45.5q28 0 81 -18t75 -23q72 -20 166 -20q262 0 262 157q0 57 -40 89t-163 63q-22 6 -79 20.5t-94.5 25t-84.5 27.5t-76 35q-174 105 -174 328q0 153 73 265t191 166t263 54q194 0 327 -43q56 -18 85.5 -58.5t29.5 -88.5q0 -64 -41 -111 t-111 -47q-19 0 -38 5t-46 14t-45 14q-58 14 -135 14q-108 0 -165.5 -36t-57.5 -103q0 -65 43 -95t158 -58q91 -21 131 -31t104 -31.5t101 -44.5q176 -112 176 -334q0 -123 -43.5 -219t-120.5 -155.5t-177.5 -90t-219.5 -30.5q-229 0 -383 53q-56 19 -84.5 61t-28.5 92z" />
<glyph unicode="T" horiz-adv-x="1263" d="M31 1331q0 67 46.5 114.5t112.5 47.5h883q66 0 113 -47.5t47 -114.5q0 -66 -47 -113t-113 -47h-276v-1024q0 -69 -48.5 -117t-117.5 -48q-68 0 -117 48t-49 117v1024h-275q-66 0 -112.5 47t-46.5 113z" />
<glyph unicode="U" horiz-adv-x="1343" d="M127 485v861q0 69 48 117t116 48q69 0 117.5 -48t48.5 -117v-844q0 -234 215 -234q213 0 213 234v844q0 67 49 116t117 49q69 0 117.5 -48.5t48.5 -116.5v-861q0 -106 -33.5 -195.5t-98.5 -159t-171 -109t-242 -39.5q-137 0 -243 39.5t-171 109t-98 159t-33 195.5z" />
<glyph unicode="V" horiz-adv-x="1189" d="M29 1298q-8 29 -8 55q0 55 37 97q55 61 135 61q53 0 95 -31t58 -91q185 -646 254 -859q33 101 71.5 227t61 202t69 236t58.5 202q16 57 56.5 85.5t89.5 28.5q76 0 128 -57q36 -40 36 -92q0 -23 -7 -49q-144 -507 -364 -1157q-61 -174 -209 -174q-73 0 -125 40.5 t-84 135.5q-216 648 -352 1140z" />
<glyph unicode="W" horiz-adv-x="1835" d="M33 1358q0 69 50 111t116 42q54 0 97 -33t56 -96q83 -438 191 -864q96 375 180 797q41 196 197 196q87 0 129.5 -50.5t62.5 -143.5q86 -431 180 -799q108 426 191 864q13 63 56 96t97 33q66 0 116 -42t50 -111q0 -13 -4 -41q-131 -621 -276 -1147q-26 -93 -82 -140.5 t-135 -47.5q-71 0 -130 47t-83 135q-75 277 -174 698q-92 -392 -175 -698q-24 -88 -83 -135t-130 -47q-79 0 -135 47.5t-82 140.5q-145 526 -276 1147q-4 28 -4 41z" />
<glyph unicode="X" horiz-adv-x="1153" d="M4 139q0 45 25 88q109 192 356 551q-195 285 -307 496q-23 48 -23 80q0 65 51.5 111t118.5 46q83 0 131 -86q78 -145 219 -364q140 216 220 362q45 88 133 88q68 0 120 -47t52 -114q0 -38 -23 -80q-108 -204 -307 -498q256 -378 354 -549q25 -48 25 -86 q0 -64 -51.5 -109.5t-116.5 -45.5q-84 0 -131 81q-98 172 -270 429q-166 -244 -273 -426q-47 -84 -133 -84q-67 0 -118.5 45.5t-51.5 111.5z" />
<glyph unicode="Y" horiz-adv-x="1097" d="M0 1352q0 68 52.5 113.5t119.5 45.5q44 0 81.5 -24.5t59.5 -73.5q99 -224 240 -493q144 279 240 495q44 96 139 96q64 0 115 -44.5t51 -110.5q0 -28 -17 -70q-154 -344 -368 -735v-404q0 -69 -48.5 -117t-117.5 -48t-117.5 48t-48.5 117v402q-213 393 -365 731 q-16 33 -16 72z" />
<glyph unicode="Z" horiz-adv-x="1179" d="M61 158q0 75 50 153l565 867h-457q-63 0 -108 45.5t-45 111.5q0 65 45 111.5t108 46.5h748q70 0 110.5 -45t40.5 -113q0 -71 -51 -145l-569 -875h471q63 0 108 -46t45 -111q0 -66 -45 -112t-108 -46h-752q-67 0 -111.5 45.5t-44.5 112.5z" />
<glyph unicode="[" horiz-adv-x="747" d="M102 -217v1749q0 65 46 110.5t112 45.5h227q65 0 111.5 -46t46.5 -110q0 -66 -46.5 -112t-111.5 -46h-53v-1433h53q65 0 111.5 -46.5t46.5 -111.5q0 -66 -46.5 -112t-111.5 -46h-227q-66 0 -112 46t-46 112z" />
<glyph unicode="\" horiz-adv-x="825" d="M8 1391q-22 55 2 109.5t80 74.5q55 22 108.5 -2t75.5 -80l547 -1444q20 -56 -3.5 -109t-78.5 -75q-55 -20 -109.5 4t-74.5 78z" />
<glyph unicode="]" horiz-adv-x="747" d="M102 -217q0 65 46 111.5t112 46.5h53v1433h-53q-66 0 -112 46t-46 112q0 65 46 110.5t112 45.5h227q65 0 111.5 -46t46.5 -110v-1749q0 -66 -46.5 -112t-111.5 -46h-227q-66 0 -112 46t-46 112z" />
<glyph unicode="^" horiz-adv-x="1091" d="M95.5 878q-11.5 58 21.5 107l282 426q55 84 146 84q92 0 147 -84l283 -426q33 -49 21.5 -107t-60.5 -90q-49 -34 -107 -23t-90 62l-194 291l-193 -291q-32 -51 -90.5 -62t-105.5 23q-49 32 -60.5 90z" />
<glyph unicode="_" horiz-adv-x="997" d="M-137 -291q0 57 40 97t97 40h997q57 0 97.5 -40t40.5 -97t-40.5 -97t-97.5 -40h-997q-57 0 -97 40t-40 97z" />
<glyph unicode="`" horiz-adv-x="1085" d="M369 1526q0 54 32.5 90.5t92.5 36.5q47 0 74.5 -20.5t47.5 -63.5l76 -166q23 -54 23 -82q0 -45 -28.5 -77t-76.5 -32q-41 0 -68.5 18.5t-54.5 61.5l-81 133q-37 68 -37 101z" />
<glyph unicode="a" horiz-adv-x="1122" d="M70 317v15q0 151 110 233t309 82h158v35q0 77 -29 116.5t-100 39.5q-66 0 -139 -25q-10 -4 -28.5 -10.5t-28.5 -10.5t-25 -7t-29 -3q-54 0 -88.5 35t-34.5 86q0 93 127 144q112 45 275 45q226 0 325 -104t99 -347v-322q0 -13 1 -24t5 -20.5t5.5 -15t9 -14t9 -11t11.5 -12 t12 -11.5q39 -43 39 -92q0 -67 -42.5 -99t-115.5 -32q-66 0 -117 26q-41 21 -65 52q-106 -78 -279 -78q-180 0 -277 87t-97 242zM391 311q0 -100 127 -100q57 0 93 34.5t36 100.5v74h-117q-139 0 -139 -96v-13z" />
<glyph unicode="b" horiz-adv-x="1157" d="M59 119q0 51 41 92q3 3 13 13.5t13 14t10 13.5t9 18t4.5 21t2.5 28v1002q0 68 47 115t114 47q68 0 116 -47.5t48 -114.5v-299q39 29 96 49.5t117 20.5q106 0 178 -31t112.5 -95.5t57.5 -151t17 -210.5v-162q0 -223 -100.5 -338.5t-301.5 -115.5q-68 0 -137.5 21.5 t-116.5 56.5q-25 -25 -37 -33q-62 -45 -139 -45q-76 0 -120 32t-44 99zM477 301q57 -43 117 -43q72 0 104.5 38t32.5 116v250q0 80 -29.5 119.5t-99.5 39.5q-69 0 -125 -53v-467z" />
<glyph unicode="c" horiz-adv-x="942" d="M102 459v143q0 138 48.5 247t150.5 176t244 67q170 0 272 -60q75 -42 75 -108q0 -25 -11 -54q-19 -52 -67 -72q-24 -10 -46 -10q-24 0 -47 11q-68 30 -143 30q-70 0 -110 -49t-40 -141v-201q0 -90 34.5 -140t102.5 -50q82 0 154 33q23 10 47 10q24 -1 48 -11 q48 -22 65 -73q8 -26 8 -50q0 -71 -76 -112q-111 -57 -268 -57q-225 0 -333 128t-108 343z" />
<glyph unicode="d" horiz-adv-x="1157" d="M102 438v156q0 122 19 211.5t62.5 155t117.5 98.5t180 33q110 0 201 -54v283q0 67 47 114.5t115 47.5t116 -47.5t48 -114.5v-1002q0 -30 8.5 -51.5t14.5 -28t28 -28.5q39 -43 39 -92q0 -67 -44 -99t-120 -32q-77 0 -139 45q-17 11 -35 33q-50 -36 -119 -57t-137 -21 q-200 0 -301 114t-101 336zM428 412q0 -78 31.5 -116t103.5 -38q59 0 119 43v471q-56 49 -121 49q-72 0 -102.5 -41t-30.5 -121v-247z" />
<glyph unicode="e" horiz-adv-x="1075" d="M102 444v191q0 93 27.5 174t81 145t140.5 101t198 37q114 0 201 -36t138 -99.5t76 -143t25 -174.5v-86q0 -47 -32 -80t-76 -33h-455v-32q0 -78 37 -121t108 -43q76 0 142 20q10 3 29 10t29 10t25.5 6t30.5 3q54 0 83.5 -33.5t29.5 -89.5q0 -90 -127 -141 q-108 -41 -266 -41q-97 0 -173.5 24t-127 66t-83.5 100.5t-47 124t-14 141.5zM426 678h252v22q0 144 -123 144q-62 0 -95.5 -37t-33.5 -107v-22z" />
<glyph unicode="f" horiz-adv-x="813" d="M18 948q0 55 39 93t93 38h16v19q0 192 108 300.5t297 108.5h111q58 0 99.5 -41.5t41.5 -99.5t-41.5 -99.5t-99.5 -41.5h-66q-124 0 -124 -127v-19h108q56 0 93.5 -37.5t37.5 -93.5q0 -54 -38 -92.5t-93 -38.5h-108v-667q0 -67 -48 -114.5t-116 -47.5t-115 47t-47 115v667 h-16q-54 0 -93 38.5t-39 92.5z" />
<glyph unicode="g" horiz-adv-x="1138" d="M102 557v51q0 240 89 362t288 122q129 0 219 -86q19 40 57 63t89 23q74 0 119 -47t45 -117v-826q0 -232 -134 -354.5t-366 -122.5q-173 0 -272 47q-91 46 -91 125q0 54 37.5 91.5t91.5 37.5q15 0 27 -2.5t31 -10t26 -9.5q61 -21 125 -21q199 0 199 197v49 q-90 -55 -203 -55q-208 0 -292.5 118t-84.5 365zM428 498q0 -80 29 -117t100 -37q66 0 125 43v381q-60 53 -125 53q-129 0 -129 -162v-161z" />
<glyph unicode="h" horiz-adv-x="1163" d="M131 150v1171q0 67 48 114.5t114 47.5q68 0 116 -47.5t48 -114.5v-281q96 52 225 52q185 0 267.5 -102t82.5 -292v-548q0 -68 -47 -115t-115 -47t-115.5 47.5t-47.5 114.5v507q0 129 -119 129q-78 0 -131 -59v-577q0 -67 -48 -114.5t-116 -47.5q-66 0 -114 47.5 t-48 114.5z" />
<glyph unicode="i" horiz-adv-x="587" d="M115 1368q0 75 52 127.5t126 52.5q75 0 127.5 -52.5t52.5 -127.5q0 -74 -52.5 -126t-127.5 -52q-73 0 -125.5 52t-52.5 126zM131 150v778q0 67 48 115.5t114 48.5q67 0 115.5 -48t48.5 -116v-778q0 -67 -48 -114.5t-116 -47.5q-66 0 -114 47.5t-48 114.5z" />
<glyph unicode="j" horiz-adv-x="587" d="M-150 -244q0 56 35.5 89.5t98.5 41.5q78 11 112.5 55t34.5 138v848q0 67 48 115.5t114 48.5q71 0 117.5 -49.5t46.5 -114.5v-826q0 -231 -117.5 -354t-355.5 -123q-63 0 -98.5 37t-35.5 94zM115 1368q0 75 52 127.5t126 52.5q75 0 127.5 -52.5t52.5 -127.5 q0 -74 -52.5 -126t-127.5 -52q-73 0 -125.5 52t-52.5 126z" />
<glyph unicode="k" horiz-adv-x="1081" d="M131 150v1171q0 67 48 114.5t114 47.5q68 0 116 -47.5t48 -114.5v-598l338 328q42 40 100 40h3q60 -1 101 -44q40 -42 40 -100q0 -62 -44 -103l-198 -185q139 -220 235 -458q13 -35 13 -66q0 -24 -8 -44q-18 -47 -61 -75t-93 -28q-46 0 -83.5 24.5t-56.5 75.5 q-85 213 -174 361l-112 -105v-194q0 -67 -48 -114.5t-116 -47.5q-66 0 -114 47.5t-48 114.5z" />
<glyph unicode="l" horiz-adv-x="606" d="M123 299v1022q0 67 48 114.5t114 47.5q68 0 116 -47.5t48 -114.5v-1002q0 -18 2.5 -32t10.5 -25.5t12 -17t17 -17.5t17 -16q39 -43 39 -92q0 -67 -44 -99t-120 -32q-77 0 -139 45q-121 86 -121 266z" />
<glyph unicode="m" horiz-adv-x="1767" d="M59 946q0 68 44 100.5t120 32.5q77 0 139 -45q31 -23 48 -45q121 103 301 103q185 0 270 -105q118 105 305 105q186 0 268 -100.5t82 -289.5v-552q0 -67 -47.5 -114.5t-115.5 -47.5q-66 0 -114 47.5t-48 114.5v507q0 129 -119 129q-80 0 -133 -59l2 -25v-552 q0 -67 -48 -114.5t-116 -47.5q-67 0 -114.5 47t-47.5 115v507q0 129 -119 129q-80 0 -133 -59v-577q0 -68 -47 -115t-114 -47q-68 0 -116 47.5t-48 114.5v598q0 17 -3 31t-10 25.5t-12 18t-17 18t-16 15.5q-41 41 -41 90z" />
<glyph unicode="n" horiz-adv-x="1191" d="M59 946q0 68 44 100.5t120 32.5q77 0 139 -45q31 -23 48 -45q121 103 301 103q185 0 267.5 -102t82.5 -292v-548q0 -67 -48 -114.5t-116 -47.5q-67 0 -114.5 47t-47.5 115v507q0 129 -119 129q-80 0 -133 -59v-577q0 -68 -47 -115t-114 -47q-68 0 -116 47.5t-48 114.5 v598q0 17 -3 31t-10 25.5t-12 18t-17 18t-16 15.5q-41 41 -41 90z" />
<glyph unicode="o" horiz-adv-x="1112" d="M102 428v221q0 93 27.5 172t82 140t143 96t202.5 35q113 0 201.5 -35t142.5 -96t81.5 -140t27.5 -172v-221q0 -93 -27.5 -171.5t-81.5 -139t-142.5 -95t-201.5 -34.5q-114 0 -202.5 34.5t-143 95t-82 139t-27.5 171.5zM428 430q0 -154 129 -154t129 154v217 q0 154 -129 154t-129 -154v-217z" />
<glyph unicode="p" horiz-adv-x="1157" d="M59 961q0 66 44 98.5t120 32.5q77 0 139 -45q24 -20 37 -33q47 35 116.5 56.5t137.5 21.5q402 0 402 -451v-156q0 -248 -87 -372.5t-294 -124.5q-114 0 -197 51v-252q0 -67 -48 -114.5t-116 -47.5q-67 0 -114 47t-47 115v973q0 15 -2.5 28t-4.5 20t-9.5 18.5t-9 13.5 t-13.5 14.5t-13 13.5q-41 41 -41 93zM477 307q52 -49 119 -49q72 0 103.5 41t31.5 121v248q0 78 -32.5 115.5t-104.5 37.5q-60 0 -117 -43v-471z" />
<glyph unicode="q" horiz-adv-x="1157" d="M102 473v164q0 222 101.5 338.5t300.5 116.5q68 0 137 -21t119 -57q10 13 35 33q62 45 139 45q76 0 120 -32.5t44 -98.5q0 -50 -39 -93l-5 -5q-17 -17 -24.5 -26.5t-14.5 -29.5t-7 -47v-973q0 -67 -48 -114.5t-116 -47.5t-115 47.5t-47 114.5v270q-39 -29 -97 -49 t-118 -20q-106 0 -178 30.5t-112.5 94.5t-57.5 150t-17 210zM428 418q0 -80 29 -120t100 -40q69 0 125 53v467q-60 43 -119 43q-72 0 -103.5 -37.5t-31.5 -115.5v-250z" />
<glyph unicode="r" horiz-adv-x="905" d="M59 946q0 133 164 133q59 0 114.5 -30t92.5 -82q106 123 283 123q77 0 131.5 -41.5t54.5 -114.5q0 -66 -40 -113t-111 -47q-16 0 -49 4t-66 4q-111 0 -150 -84v-548q0 -68 -47 -115t-114 -47q-68 0 -116 47.5t-48 114.5v598q0 17 -3 31t-10 25.5t-12 18t-17 18t-16 15.5 q-41 41 -41 90z" />
<glyph unicode="s" horiz-adv-x="976" d="M74 201q18 57 70 81q28 13 57 13q23 0 47 -8q42 -14 59.5 -19.5t58 -11.5t89.5 -6q62 0 99.5 19.5t37.5 52.5q0 26 -15.5 43.5t-46 27.5t-62 16t-78.5 14.5t-81 18.5q-50 14 -88 34t-73 54.5t-53.5 89.5t-18.5 128q0 83 32.5 150t88 108.5t127 63.5t151.5 22 q167 0 297 -45q54 -19 78 -67q15 -29 16 -61q0 -20 -6 -40q-17 -53 -66 -79q-30 -16 -61 -16q-20 0 -41 7q-125 38 -198 38q-57 0 -86 -17.5t-29 -41.5q0 -20 10 -35t24 -24t40.5 -17t49 -12t60.5 -11.5t64 -13.5q58 -13 100 -31.5t84.5 -53.5t65 -94t22.5 -140 q0 -75 -26 -136t-69 -100t-102 -65.5t-121 -37.5t-130 -11q-168 0 -299 43q-50 17 -72 67q-13 30 -12 61q0 21 6 42z" />
<glyph unicode="t" horiz-adv-x="825" d="M10 948q0 55 38.5 93t92.5 38h21v105q0 68 48 116t116 48q66 0 113.5 -48.5t47.5 -115.5v-105h140q56 0 94.5 -38t38.5 -93q0 -54 -39 -92.5t-94 -38.5h-140v-319q0 -115 31 -164t115 -49h37q58 0 99.5 -41.5t41.5 -100.5q0 -60 -41 -101.5t-100 -41.5h-84 q-218 0 -321 130.5t-103 361.5v325h-21q-54 0 -92.5 38.5t-38.5 92.5z" />
<glyph unicode="u" horiz-adv-x="1196" d="M135 377v551q0 67 48 115.5t114 48.5q67 0 115.5 -48t48.5 -116v-508q0 -63 25 -96t94 -33q77 0 131 61v576q0 68 48 116t115 48t114.5 -48t47.5 -116v-609q0 -18 3 -32t10.5 -25.5t12.5 -17.5t17.5 -17.5t16.5 -15.5q41 -46 41 -92q0 -67 -44.5 -99t-119.5 -32 q-79 0 -139 45q-30 21 -54 51q-116 -96 -295 -96q-177 0 -263.5 102.5t-86.5 286.5z" />
<glyph unicode="v" horiz-adv-x="1050" d="M39 901q-9 28 -9 52q0 48 32 84q48 55 122 55q46 0 84 -26t54 -79q108 -357 196 -600q65 178 203 598q18 53 56 80t85 27t88 -24q40 -24 60 -72q10 -25 11 -52q0 -25 -9 -51q-122 -369 -283 -743q-41 -95 -92 -128.5t-121 -33.5q-77 0 -126.5 33t-88.5 129 q-161 411 -262 751z" />
<glyph unicode="w" horiz-adv-x="1517" d="M41 922q-3 18 -3 34q0 52 34 88q46 48 114 48q51 0 92 -29.5t52 -87.5q73 -373 129 -586q71 280 123 551q31 152 178 152q144 0 176 -152q52 -271 123 -551q56 213 129 586q10 58 50.5 87.5t92.5 29.5q67 0 113 -48q36 -37 36 -89q0 -16 -3 -33q-89 -453 -195 -785 q-25 -76 -80 -112.5t-127 -36.5q-71 0 -125.5 36t-75.5 109q-61 221 -116 457q-60 -259 -115 -457q-21 -73 -76 -109t-127 -36q-71 0 -125.5 36.5t-78.5 112.5q-116 362 -195 785z" />
<glyph unicode="x" horiz-adv-x="970" d="M57 201q64 129 230 342q-51 67 -79 105.5t-65.5 98.5t-62.5 115q-17 38 -17 72q0 48 33 88q56 70 142 70q47 0 87 -24.5t62 -74.5q54 -117 102 -184q77 114 111 192q42 91 137 91q51 0 93 -28q43 -30 59 -76q6 -19 6 -39q0 -31 -14 -66q-58 -131 -203 -322 q59 -75 88.5 -113.5t73 -104t71.5 -122.5q19 -40 19 -75q0 -47 -32 -87q-56 -71 -144 -71q-99 0 -146 94q-53 110 -133 219q-93 -133 -139 -227q-44 -86 -133 -86q-83 0 -135 65q-29 37 -28 79q0 33 17 69z" />
<glyph unicode="y" horiz-adv-x="989" d="M-18 -217q0 59 36.5 104t106.5 52q32 3 54.5 7.5t52.5 16t57.5 36t52.5 60.5q-88 218 -176.5 460t-128.5 378q-8 28 -8 53q0 49 33 86q51 56 128 56q47 0 85.5 -28.5t52.5 -82.5q112 -367 164 -520l157 522q16 55 57.5 82t90.5 27q82 0 131 -64q31 -38 31 -87 q0 -31 -13 -67l-254 -718q-93 -258 -213.5 -384.5t-316.5 -146.5q-10 -1 -20 -1q-68 0 -111 42q-49 49 -49 117z" />
<glyph unicode="z" horiz-adv-x="929" d="M41 158q0 49 31 94l395 549h-260q-57 0 -98 40.5t-41 98.5t41 98.5t98 40.5h532q59 0 105.5 -33.5t46.5 -103.5q0 -71 -49 -137l-379 -526h289q57 0 98 -41t41 -99q0 -57 -41 -98t-98 -41h-568q-49 0 -96 44t-47 114z" />
<glyph unicode="{" horiz-adv-x="854" d="M61 657q0 53 33 89t82 36h8q34 0 55 26.5t21 82.5q0 36 -36 190t-36 230q0 82 22.5 148t58.5 108t85.5 70t100.5 39.5t106 11.5h21q64 0 106.5 -46.5t42.5 -113.5q0 -66 -39 -111t-96 -45h-6q-29 0 -51.5 -21t-22.5 -63q0 -59 37 -189.5t37 -197.5q0 -94 -42.5 -153 t-115.5 -82v-17q73 -23 115.5 -82t42.5 -153q0 -67 -37 -197.5t-37 -189.5q0 -42 22.5 -63t51.5 -21h6q57 0 96 -45t39 -111q0 -67 -42.5 -113.5t-106.5 -46.5h-21q-55 0 -106 11.5t-100.5 39.5t-85.5 70t-58.5 108t-22.5 148q0 76 36 230t36 190q0 56 -21 82t-55 26h-8 q-49 0 -82 36t-33 89z" />
<glyph unicode="|" horiz-adv-x="618" d="M143 -211v1735q0 69 48.5 117.5t117.5 48.5t117.5 -48.5t48.5 -117.5v-1735q0 -69 -48.5 -117.5t-117.5 -48.5t-117.5 48.5t-48.5 117.5z" />
<glyph unicode="}" horiz-adv-x="854" d="M123 -213q0 66 39.5 111t97.5 45h6q29 0 50.5 21t21.5 63q0 59 -36 189.5t-36 197.5q0 94 42 153.5t116 81.5v17q-74 22 -116 81.5t-42 153.5q0 67 36 197.5t36 189.5q0 42 -21.5 63t-50.5 21h-6q-58 0 -97.5 45t-39.5 111q0 67 42.5 113.5t106.5 46.5h21q55 0 106 -11.5 t100.5 -39.5t85.5 -70t58.5 -108t22.5 -148q0 -76 -36 -230t-36 -190q0 -57 21.5 -83t56.5 -26h8q47 0 80 -36.5t33 -88.5t-33 -88.5t-80 -36.5h-8q-78 0 -78 -108q0 -36 36 -190t36 -230q0 -82 -22.5 -148t-58.5 -108t-85.5 -70t-100.5 -39.5t-106 -11.5h-21 q-64 0 -106.5 46.5t-42.5 113.5z" />
<glyph unicode="~" horiz-adv-x="1368" d="M113 582q0 82 58 142t138 86t166 26q61 0 119 -17.5t96 -39t86 -39t92 -17.5q43 0 78.5 20t69.5 40t76 20q67 0 115 -48t48 -116q0 -63 -33 -113t-86.5 -78.5t-115 -43.5t-125.5 -15q-61 0 -119.5 17t-96.5 37.5t-86.5 37.5t-92.5 17q-43 0 -78.5 -20.5t-69.5 -41 t-76 -20.5q-66 0 -114.5 48.5t-48.5 117.5z" />
<glyph unicode="&#xa2;" horiz-adv-x="942" d="M102 459v143q0 185 88 315.5t252 163.5v68q0 53 36 89t89 36q51 0 88 -36.5t37 -88.5v-72q75 -14 125 -45q103 -58 64 -162q-18 -52 -66.5 -72t-93.5 1q-68 30 -143 30q-70 0 -110 -49t-40 -141v-201q0 -90 34.5 -140t102.5 -50q82 0 154 33q47 21 95 -0.5t65 -73.5 q33 -107 -68 -162q-60 -31 -119 -43v-74q0 -51 -37 -87t-88 -36q-52 0 -88.5 36t-36.5 87v68q-174 28 -257 150.5t-83 312.5z" />
<glyph unicode="&#xa3;" d="M0 156q0 65 44 109t130 63q90 36 88 217v8h-82q-56 0 -94.5 38.5t-38.5 94.5t38.5 94.5t94.5 38.5h25q-43 138 -43 230q0 94 31.5 174.5t93 144.5t162.5 100.5t231 36.5q154 0 266 -37q129 -41 129 -149q0 -67 -41 -111.5t-106 -44.5q-27 0 -72 11q-96 22 -143 22 q-219 0 -219 -158q0 -82 45 -219h227q56 0 94.5 -38.5t38.5 -94.5t-38.5 -94.5t-94.5 -38.5h-172v-8q0 -141 -90 -234h457q65 0 110 -45.5t45 -109.5q0 -65 -45.5 -110.5t-109.5 -45.5h-805q-64 0 -110 46t-46 110z" />
<glyph unicode="&#xa5;" d="M25 1352q0 68 52.5 113.5t119.5 45.5q44 0 81.5 -24.5t59.5 -73.5q99 -224 240 -493q137 265 239 495q44 96 139 96q64 0 115 -44.5t51 -110.5q0 -30 -16 -70q-54 -120 -154 -325h19q52 0 90.5 -38.5t38.5 -91.5q0 -54 -38 -91.5t-91 -37.5h-152q-52 -98 -82 -151v-23 h234q53 0 91 -37.5t38 -91.5q0 -53 -38 -91t-91 -38h-234v-123q0 -69 -48.5 -117t-117.5 -48t-117 48t-48 117v123h-232q-54 0 -91.5 38t-37.5 91q0 54 37.5 91.5t91.5 37.5h232v21l-82 153h-150q-54 0 -91.5 37.5t-37.5 91.5q0 53 37.5 91.5t91.5 38.5h19q-58 114 -152 319 q-16 33 -16 72z" />
<glyph unicode="&#xa8;" horiz-adv-x="1085" d="M176 1389q0 66 45 111.5t111 45.5t111.5 -45.5t45.5 -111.5t-45.5 -111t-111.5 -45t-111 45t-45 111zM594 1389q0 66 45 111.5t111 45.5t111.5 -45.5t45.5 -111.5t-45.5 -111t-111.5 -45t-111 45t-45 111z" />
<glyph unicode="&#xa9;" horiz-adv-x="1783" d="M127 745q0 155 60.5 297t163 244.5t244 163.5t296.5 61t297 -61t244.5 -163.5t163.5 -244.5t61 -297t-61 -296.5t-163.5 -243.5t-244 -162.5t-297.5 -60.5q-155 0 -296.5 60.5t-244 162.5t-163 243.5t-60.5 296.5zM334 745q0 -113 44 -216.5t119 -178.5t178 -119.5 t216 -44.5q114 0 217.5 44.5t178.5 119.5t119 178.5t44 216.5q0 114 -44 218t-119 179.5t-178.5 120t-217.5 44.5q-113 0 -216 -44.5t-178 -120t-119 -179.5t-44 -218zM561 700v95q0 150 88.5 255t241.5 105q102 0 180 -33q64 -28 64 -86q0 -40 -27.5 -71t-67.5 -31 q-23 0 -43 10q-43 17 -94 17q-57 0 -96 -43t-39 -123v-95q0 -96 34 -132t99 -36q61 0 107 21q16 6 39 6q40 0 65 -29.5t25 -68.5q0 -63 -64 -88q-83 -35 -184 -35q-159 0 -243.5 97.5t-84.5 264.5z" />
<glyph unicode="&#xab;" horiz-adv-x="1480" d="M61 575q0 57 43 103l353 362q42 45 106 45q60 0 101 -41q45 -42 45 -106q0 -61 -41 -102l-252 -261l252 -262q41 -41 41 -100q0 -65 -45 -107q-43 -43 -103 -43q-58 0 -104 46l-353 364q-43 46 -43 102zM741 575q0 57 43 103l351 362q42 45 106 45q61 0 102 -41 q46 -43 46 -104q0 -60 -41 -104l-252 -261l252 -262q41 -44 41 -102q0 -62 -46 -105q-43 -43 -102 -43q-60 0 -106 46l-351 364q-43 46 -43 102z" />
<glyph unicode="&#xad;" horiz-adv-x="1060" d="M113 602q0 60 43 104t104 44h541q61 0 104 -44t43 -104q0 -62 -43 -104.5t-104 -42.5h-541q-62 0 -104.5 42.5t-42.5 104.5z" />
<glyph unicode="&#xae;" horiz-adv-x="1783" d="M127 745q0 155 60.5 297t163 244.5t244 163.5t296.5 61t297 -61t244.5 -163.5t163.5 -244.5t61 -297t-61 -296.5t-163.5 -243.5t-244 -162.5t-297.5 -60.5q-155 0 -296.5 60.5t-244 162.5t-163 243.5t-60.5 296.5zM334 745q0 -113 44 -216.5t119 -178.5t178 -119.5 t216 -44.5q114 0 217.5 44.5t178.5 119.5t119 178.5t44 216.5q0 114 -44 218t-119 179.5t-178.5 120t-217.5 44.5q-113 0 -216 -44.5t-178 -120t-119 -179.5t-44 -218zM614 451v591q0 43 30 74t73 31h213q69 0 119.5 -18.5t79 -50.5t42 -70.5t13.5 -83.5v-68 q0 -130 -109 -186l86 -178q10 -20 10 -41q0 -43 -30.5 -74t-73.5 -31q-67 0 -96 68l-97 223h-53v-186q0 -43 -30.5 -74t-73.5 -31t-73 31t-30 74zM821 815h80q76 0 76 57v33q0 58 -59 58h-97v-148z" />
<glyph unicode="&#xb4;" horiz-adv-x="1085" d="M367 1321q0 30 22 82l76 166q20 43 48 63.5t75 20.5q60 0 92.5 -36.5t32.5 -90.5q0 -33 -37 -101l-82 -133q-27 -43 -54.5 -61.5t-68.5 -18.5q-48 0 -76 32t-28 77z" />
<glyph unicode="&#xb8;" horiz-adv-x="1085" d="M340 -342q0 57 92 57q107 0 107 52q0 21 -17 31.5t-55 15.5q-45 5 -64.5 20t-15.5 51l12 121h140v-88q102 0 154 -44t52 -118q0 -78 -65 -124t-182 -46q-158 0 -158 72z" />
<glyph unicode="&#xbb;" horiz-adv-x="1480" d="M92 211q0 58 41 102l252 262l-252 261q-41 44 -41 104q0 62 45 104q41 41 103 41q64 0 106 -45l350 -362q43 -46 43 -103q0 -56 -43 -102l-350 -364q-46 -46 -106 -46t-103 43q-45 42 -45 105zM772 213q0 59 41 100l252 262l-252 261q-41 41 -41 102q0 64 45 106 q41 41 101 41q64 0 106 -45l352 -362q43 -46 43 -103q0 -56 -43 -102l-352 -364q-46 -46 -104 -46q-60 0 -103 43q-45 42 -45 107z" />
<glyph unicode="&#x192;" horiz-adv-x="907" d="M-76 -223q0 57 41 98t98 41h9q81 0 94 78l141 819h-16q-54 0 -91.5 37t-37.5 90q0 54 37.5 91.5t91.5 37.5h61l19 98q8 47 27 92.5t52.5 88t76.5 74.5t102.5 51.5t126.5 19.5h35q59 0 99 -38t40 -101q0 -62 -40.5 -101t-98.5 -39h-13q-75 0 -88 -77l-12 -68h53 q54 0 91.5 -37.5t37.5 -91.5q0 -53 -37.5 -90t-91.5 -37h-98l-148 -848q-11 -67 -40 -124t-75.5 -103.5t-116 -73t-155.5 -26.5h-35q-57 0 -98 40.5t-41 98.5z" />
<glyph unicode="&#x2c6;" horiz-adv-x="1085" d="M203 1346q0 52 47 90l205 161q42 33 88 33q43 -2 88 -35l205 -165q47 -38 47 -91q0 -36 -27 -75q-36 -45 -86 -45q-37 0 -76 26l-151 103l-152 -101q-37 -24 -74 -24q-53 0 -88 47q-26 37 -26 76z" />
<glyph unicode="&#x2da;" horiz-adv-x="1085" d="M297 1430q0 102 72 173.5t174 71.5t173.5 -71.5t71.5 -173.5q0 -101 -72 -172.5t-173 -71.5t-173.5 71.5t-72.5 172.5zM434 1430q0 -44 32.5 -76.5t76.5 -32.5t76 32.5t32 76.5q0 46 -32 78t-76 32q-45 0 -77 -32t-32 -78z" />
<glyph unicode="&#x2dc;" horiz-adv-x="1085" d="M166 1403q-1 99 72 155t163 58q50 1 97.5 -21.5t88 -45t75.5 -21.5q23 1 40.5 11.5t27.5 23t30.5 23t48.5 11.5q43 2 76.5 -38t34.5 -95q1 -100 -72 -154.5t-164 -56.5q-50 -1 -97 20.5t-87.5 43t-75.5 20.5q-23 0 -41.5 -10.5t-29.5 -23t-31 -23.5t-46 -12 q-43 0 -76 39.5t-34 95.5z" />
<glyph unicode="&#x401;" horiz-adv-x="1185" d="M154 158v1177q0 65 45.5 111.5t111.5 46.5h615q66 0 111.5 -46.5t45.5 -111.5q0 -66 -45.5 -111.5t-111.5 -45.5h-441v-279h398q63 0 108 -45.5t45 -108.5t-45 -107t-108 -44h-398v-279h467q64 0 110 -46t46 -111q0 -66 -45.5 -112t-110.5 -46h-641q-66 0 -111.5 46 t-45.5 112zM231 1802q0 66 45 112t111 46t112 -46t46 -112t-46 -110.5t-112 -44.5t-111 44.5t-45 110.5zM649 1802q0 66 45 112t111 46t112 -46t46 -112t-46 -110.5t-112 -44.5t-111 44.5t-45 110.5z" />
<glyph unicode="&#x402;" horiz-adv-x="1497" d="M31 1331q0 69 46.5 115.5t112.5 46.5h787q67 0 113.5 -46.5t46.5 -115.5q0 -68 -46.5 -112.5t-113.5 -44.5h-227v-191q109 51 237 51q203 0 291 -103.5t88 -303.5v-430q0 -272 -84 -400q-95 -149 -256 -149q-81 0 -127.5 42.5t-46.5 106.5q0 55 26.5 89t75.5 65 q27 18 42.5 36.5t26.5 56.5t11 95v455q0 137 -143 137q-32 0 -72 -15.5t-69 -39.5v-531q0 -68 -49 -115.5t-119 -47.5q-68 0 -117 48t-49 115v1029h-226q-67 0 -113 44.5t-46 112.5z" />
<glyph unicode="&#x403;" horiz-adv-x="1128" d="M154 147v1188q0 65 45.5 111.5t111.5 46.5h631q64 0 110 -46.5t46 -111.5t-46 -111t-110 -46h-459v-1031q0 -68 -48.5 -115.5t-117.5 -47.5q-67 0 -115 48t-48 115zM512 1737q0 28 23 82l75 166q20 42 48 62.5t75 20.5q60 0 92.5 -36t32.5 -90q0 -33 -37 -101l-82 -133 q-27 -43 -54.5 -61.5t-68.5 -18.5q-48 0 -76 32t-28 77z" />
<glyph unicode="&#x404;" horiz-adv-x="1181" d="M127 639v223q0 167 29 283.5t112 212.5q72 83 178 119t259 36q209 0 321 -79q74 -51 74 -129q0 -58 -41 -100t-115 -42q-31 0 -110 27q-81 29 -142 29q-107 0 -166 -56q-65 -62 -65 -186v-59h344q64 0 107.5 -42t43.5 -110t-43.5 -110t-107.5 -42h-344v-75 q0 -131 65 -199q58 -61 166 -61q94 0 162 32q71 31 111 31q61 0 101 -40t40 -103q0 -81 -74 -131q-57 -40 -154 -63t-173 -23q-351 0 -494 229q-50 79 -67 182t-17 246z" />
<glyph unicode="&#x405;" horiz-adv-x="1208" d="M82 188q0 63 38.5 108.5t102.5 45.5q28 0 81 -18t75 -23q72 -20 166 -20q262 0 262 157q0 57 -40 89t-163 63q-22 6 -79 20.5t-94.5 25t-84.5 27.5t-76 35q-174 105 -174 328q0 153 73 265t191 166t263 54q194 0 327 -43q56 -18 85.5 -58.5t29.5 -88.5q0 -64 -41 -111 t-111 -47q-19 0 -38 5t-46 14t-45 14q-58 14 -135 14q-108 0 -165.5 -36t-57.5 -103q0 -65 43 -95t158 -58q91 -21 131 -31t104 -31.5t101 -44.5q176 -112 176 -334q0 -123 -43.5 -219t-120.5 -155.5t-177.5 -90t-219.5 -30.5q-229 0 -383 53q-56 19 -84.5 61t-28.5 92z" />
<glyph unicode="&#x406;" horiz-adv-x="638" d="M154 147v1199q0 68 48 116.5t117 48.5t117.5 -48.5t48.5 -116.5v-1199q0 -69 -48.5 -117t-117.5 -48t-117 48t-48 117z" />
<glyph unicode="&#x407;" horiz-adv-x="638" d="M-47 1802q0 66 45 112t111 46t111.5 -46t45.5 -112t-45.5 -110.5t-111.5 -44.5t-111 44.5t-45 110.5zM154 147v1199q0 68 48 116.5t117 48.5q67 0 115.5 -48.5t48.5 -116.5v-1199q0 -69 -48 -117t-116 -48q-69 0 -117 48t-48 117zM371 1802q0 66 44.5 112t110.5 46 t112 -46t46 -112t-46 -110.5t-112 -44.5t-110.5 44.5t-44.5 110.5z" />
<glyph unicode="&#x408;" horiz-adv-x="978" d="M4 143q0 69 40.5 113.5t111.5 44.5q22 0 63 -6q29 -2 92 -2q121 0 165 58t44 210v785q0 68 48.5 116.5t117.5 48.5q68 0 117 -49t49 -116v-785q0 -101 -17 -185.5t-57 -158.5t-101 -125t-154 -80.5t-212 -29.5q-87 0 -172 10q-66 10 -100.5 52.5t-34.5 98.5z" />
<glyph unicode="&#x409;" horiz-adv-x="2127" d="M33 143q0 35 16.5 71t38.5 64.5t48 74t40 93.5q35 146 35 418v473q0 63 47 109.5t113 46.5h759q66 0 112 -45.5t46 -110.5v-419h266q101 0 183 -22.5t146 -69t99 -125t35 -183.5v-119q0 -216 -151 -319q-118 -80 -312 -80h-434q-68 0 -116 48t-48 118v1014h-411v-316 q0 -167 -31.5 -371t-97.5 -337q-87 -174 -219 -174q-67 0 -115.5 47t-48.5 114zM1288 305h260q67 0 103.5 40t36.5 99v43q0 61 -39.5 100.5t-110.5 39.5h-250v-322z" />
<glyph unicode="&#x40a;" horiz-adv-x="2091" d="M154 150v1198q0 69 48 117t117 48t116.5 -48t47.5 -117v-430h461v430q0 69 48 117t116 48q71 0 120.5 -48t49.5 -117v-430h264q78 0 144.5 -12.5t126 -42.5t101.5 -75t66.5 -114t24.5 -156v-119q0 -83 -25 -152.5t-78 -126t-145 -88.5t-215 -32h-434q-68 0 -116 48 t-48 118v461h-461v-477q0 -70 -47.5 -118t-116.5 -48t-117 48t-48 118zM1278 305h258q67 0 103 40t36 99v43q0 61 -39 100.5t-110 39.5h-248v-322z" />
<glyph unicode="&#x40b;" horiz-adv-x="1497" d="M31 1331q0 69 46.5 115.5t112.5 46.5h787q67 0 113.5 -46.5t46.5 -115.5q0 -68 -46.5 -112.5t-113.5 -44.5h-227v-191q109 51 237 51q203 0 291 -103.5t88 -303.5v-482q0 -68 -47.5 -115.5t-114.5 -47.5q-68 0 -117 47.5t-49 115.5v441q0 25 -5.5 47.5t-20 46t-45.5 37.5 t-76 14q-32 0 -72 -15.5t-69 -39.5v-531q0 -68 -49 -115.5t-119 -47.5q-68 0 -117 48t-49 115v1029h-226q-67 0 -113 44.5t-46 112.5z" />
<glyph unicode="&#x40c;" horiz-adv-x="1302" d="M154 147v1199q0 68 48 116.5t115 48.5q68 0 117 -49t49 -116v-447h195l280 524q50 88 144 88q71 0 119.5 -47t48.5 -118q0 -43 -23 -84l-289 -517q166 -268 293 -514q23 -44 23 -84q0 -72 -47.5 -118.5t-122.5 -46.5q-102 0 -146 86q-7 13 -47 93.5t-56 112.5t-50 97 t-63.5 117.5t-61.5 105.5h-197v-447q0 -67 -49 -116t-117 -49q-67 0 -115 48.5t-48 116.5zM594 1735q0 30 22 82l76 165q20 43 48 63.5t75 20.5q60 0 92.5 -36.5t32.5 -90.5q0 -32 -37 -100l-82 -133q-27 -43 -54.5 -61.5t-68.5 -18.5q-48 0 -76 32t-28 77z" />
<glyph unicode="&#x40e;" horiz-adv-x="1107" d="M6 1350q0 67 48 114t118 47q105 0 147 -104l263 -641q33 87 106 319q18 58 50 162.5t46 147.5q18 58 60 87t98 29q79 0 120.5 -41.5t41.5 -111.5q0 -45 -14 -88q-75 -234 -158 -465q-69 -190 -184 -461q-37 -86 -75 -147.5t-89.5 -112.5t-119 -76.5t-151.5 -25.5h-59 q-67 0 -114.5 42.5t-47.5 112.5q0 69 46 114.5t110 45.5h26q48 0 81.5 21t68.5 73l-397 869q-21 46 -21 90zM228 1948q9 38 42 65q25 19 55.5 24.5t61.5 -8.5t51 -47q57 -96 131 -96q15 0 27 2.5t30.5 11t38.5 29t40 53.5q20 32 49 46t58 10t54 -21q38 -25 49 -65.5 t-16 -89.5q-131 -209 -330 -209q-197 0 -325 209q-25 48 -16 86z" />
<glyph unicode="&#x40f;" horiz-adv-x="1429" d="M154 158v1190q0 68 48 115.5t115 47.5q69 0 117.5 -47.5t48.5 -115.5v-1031h461v1031q0 67 48 115t116 48q70 0 119 -47.5t49 -115.5v-1190q0 -65 -46 -111.5t-112 -46.5h-239v-233q0 -68 -48.5 -117t-117.5 -49q-67 0 -115.5 49t-48.5 117v233h-238q-67 0 -112 46.5 t-45 111.5z" />
<glyph unicode="&#x410;" horiz-adv-x="1196" d="M25 182q126 587 358 1161q69 170 213 170q150 0 219 -170q228 -563 356 -1161q19 -87 -33 -143.5t-130 -56.5q-57 0 -101.5 33t-58.5 98q-13 64 -41 178h-426q-28 -114 -41 -178q-14 -64 -57.5 -97.5t-98.5 -33.5q-75 0 -126.5 56t-32.5 144zM459 584h270 q-60 206 -135 413q-75 -207 -135 -413z" />
<glyph unicode="&#x411;" horiz-adv-x="1325" d="M154 166v1169q0 65 45.5 111.5t111.5 46.5h647q66 0 112 -46.5t46 -111.5t-46 -111t-112 -46h-473v-260h269q97 0 177 -21.5t145 -66.5t101.5 -124.5t36.5 -187.5v-119q0 -84 -25 -153.5t-77 -126t-143.5 -88t-214.5 -31.5h-435q-68 0 -116.5 48t-48.5 118zM485 305h263 q66 0 101.5 39.5t35.5 99.5v41q0 61 -39 100.5t-109 39.5h-252v-320z" />
<glyph unicode="&#x412;" horiz-adv-x="1325" d="M154 166v1161q0 68 48 117t117 49h379q124 0 217 -32.5t145 -87.5t76.5 -119t24.5 -136v-55q0 -99 -43 -176.5t-133 -118.5q76 -25 129.5 -79.5t76.5 -116.5t23 -128v-57q0 -82 -25 -149.5t-77.5 -122t-144.5 -85t-215 -30.5h-433q-69 0 -117 48.5t-48 117.5zM485 303 h260q66 0 103 37t37 92v39q0 55 -39 91t-109 36h-252v-295zM485 889h177q71 0 119 31t48 98v49q0 55 -37 87t-100 32h-207v-297z" />
<glyph unicode="&#x413;" horiz-adv-x="1128" d="M154 147v1188q0 65 45.5 111.5t111.5 46.5h631q64 0 110 -46.5t46 -111.5t-46 -111t-110 -46h-459v-1031q0 -68 -48.5 -115.5t-117.5 -47.5q-67 0 -115 48t-48 115z" />
<glyph unicode="&#x414;" horiz-adv-x="1658" d="M12 172q0 61 44.5 101t101.5 40h98q60 71 80 201.5t20 347.5v471q0 65 47.5 111.5t112.5 46.5h713q66 0 111.5 -46t45.5 -112v-1020h117q60 0 103 -40.5t43 -100.5v-420q0 -63 -45.5 -108t-108.5 -45t-108.5 45t-45.5 108v248h-1022v-248q0 -63 -45 -108t-108 -45 t-108.5 45t-45.5 108v420zM621 313h434v863h-365v-314q0 -365 -69 -549z" />
<glyph unicode="&#x415;" horiz-adv-x="1173" d="M154 158v1177q0 65 45.5 111.5t111.5 46.5h615q66 0 111.5 -46.5t45.5 -111.5q0 -66 -45.5 -111.5t-111.5 -45.5h-441v-279h398q63 0 108 -45.5t45 -108.5t-45 -107t-108 -44h-398v-279h467q64 0 110 -46t46 -111q0 -66 -45.5 -112t-110.5 -46h-641q-66 0 -111.5 46 t-45.5 112z" />
<glyph unicode="&#x416;" horiz-adv-x="1959" d="M27 147q0 42 22 84q127 246 293 514l-289 517q-22 39 -22 84q0 71 48.5 118t119.5 47q93 0 143 -88l281 -524h194v447q0 68 48.5 116.5t115.5 48.5q68 0 117 -49t49 -116v-447h194l281 524q50 88 143 88q71 0 119.5 -47t48.5 -118q0 -45 -22 -84l-289 -517 q166 -268 293 -514q22 -42 22 -84q0 -72 -47.5 -118.5t-122.5 -46.5q-101 0 -145 86q-4 8 -39 78.5t-45.5 91t-42 81.5t-50 95.5t-47 85t-55.5 94.5h-196v-447q0 -67 -49 -116t-117 -49q-67 0 -115.5 48.5t-48.5 116.5v447h-196q-27 -44 -55.5 -94.5t-47 -85t-50 -95.5 t-42 -81.5t-45.5 -91t-39 -78.5q-44 -86 -145 -86q-75 0 -122.5 46.5t-47.5 118.5z" />
<glyph unicode="&#x417;" horiz-adv-x="1081" d="M55 203q0 60 39.5 100.5t95.5 40.5q44 0 105 -39q59 -39 145 -39q90 0 142.5 49t52.5 140q0 168 -189 168h-110q-57 0 -97 40.5t-40 98.5t40 98.5t97 40.5h117q200 0 200 154q0 72 -39 118t-125 46q-95 0 -165 -45q-2 -1 -14.5 -8t-17 -9.5t-16.5 -8t-20 -7.5t-20.5 -4 t-24.5 -2q-51 0 -89 35.5t-38 101.5q0 89 84 151q121 88 338 88q95 0 173 -25.5t128 -67t84 -95t48.5 -107t14.5 -106.5q0 -251 -213 -338q230 -84 230 -362q0 -82 -32 -157t-93 -136.5t-162 -98t-227 -36.5q-246 0 -344 98q-58 58 -58 123z" />
<glyph unicode="&#x418;" horiz-adv-x="1470" d="M154 147v1199q0 68 48 116.5t115 48.5q69 0 117.5 -48.5t48.5 -116.5v-646l502 535v111q0 67 49 116t117 49t117 -49t49 -116v-1199q0 -67 -49 -116t-117 -49t-117 49t-49 116v646l-502 -535v-111q0 -68 -48.5 -116.5t-117.5 -48.5q-67 0 -115 48.5t-48 116.5z" />
<glyph unicode="&#x419;" horiz-adv-x="1470" d="M154 147v1199q0 68 48 116.5t115 48.5q69 0 117.5 -48.5t48.5 -116.5v-646l502 535v111q0 67 49 116t117 49t117 -49t49 -116v-1199q0 -67 -49 -116t-117 -49t-117 49t-49 116v646l-502 -535v-111q0 -68 -48.5 -116.5t-117.5 -48.5q-67 0 -115 48.5t-48 116.5zM397 1921 q0 55 45 88q31 25 74 25q58 0 94 -56q57 -96 131 -96q15 0 27 2.5t30.5 11t38.5 29t40 53.5q36 56 94 56q37 0 67 -21q52 -34 52 -92q0 -32 -19 -63q-131 -209 -330 -209q-197 0 -325 209q-19 36 -19 63z" />
<glyph unicode="&#x41a;" horiz-adv-x="1302" d="M154 147v1199q0 68 48 116.5t115 48.5q68 0 117 -49t49 -116v-447h195l280 524q50 88 144 88q71 0 119.5 -47t48.5 -118q0 -43 -23 -84l-289 -517q166 -268 293 -514q23 -44 23 -84q0 -72 -47.5 -118.5t-122.5 -46.5q-102 0 -146 86q-7 13 -47 93.5t-56 112.5t-50 97 t-63.5 117.5t-61.5 105.5h-197v-447q0 -67 -49 -116t-117 -49q-67 0 -115 48.5t-48 116.5z" />
<glyph unicode="&#x41b;" horiz-adv-x="1439" d="M33 141q0 35 16.5 71t38.5 64.5t48 74t40 93.5q35 146 35 418v473q0 63 47 109.5t113 46.5h757q67 0 112.5 -46t45.5 -110v-1188q0 -72 -45 -118.5t-119 -46.5t-120 47t-46 118v1031h-411v-316q0 -167 -31.5 -371t-97.5 -337q-87 -174 -219 -174q-67 0 -115.5 47 t-48.5 114z" />
<glyph unicode="&#x41c;" horiz-adv-x="1671" d="M154 135v1223q0 67 45 110t110 43q62 0 99 -22t63 -76l367 -729l368 739q24 50 62.5 69t93.5 19q66 0 111 -45t45 -108v-1223q0 -63 -45 -108t-111 -45q-63 0 -107.5 45t-44.5 108v649l-227 -465q-49 -98 -149 -98q-45 0 -84.5 24.5t-63.5 73.5l-227 465v-649 q0 -63 -45 -108t-109 -45q-63 0 -107 45t-44 108z" />
<glyph unicode="&#x41d;" horiz-adv-x="1427" d="M154 145v1198q0 70 48 118t117 48q68 0 116 -48t48 -118v-464h461v464q0 70 48 118t116 48q69 0 117.5 -48t48.5 -118v-1198q0 -68 -48.5 -115.5t-117.5 -47.5q-68 0 -116 48t-48 115v441h-461v-441q0 -67 -48 -115t-116 -48q-69 0 -117 47.5t-48 115.5z" />
<glyph unicode="&#x41e;" horiz-adv-x="1343" d="M127 535v423q0 88 17 166t57.5 150t102 123.5t155.5 82.5t213 31q118 0 212 -31t155.5 -82.5t102 -123.5t58 -150t17.5 -166v-423q0 -88 -17.5 -166t-58 -150.5t-102 -124.5t-155.5 -83t-212 -31q-119 0 -213 31t-155.5 83t-102 124.5t-57.5 150.5t-17 166zM459 535 q0 -128 46 -192t167 -64q120 0 166.5 64.5t46.5 191.5v423q0 125 -46 188.5t-167 63.5t-167 -63t-46 -189v-423z" />
<glyph unicode="&#x41f;" horiz-adv-x="1431" d="M154 145v1190q0 65 46.5 111.5t110.5 46.5h807q67 0 113.5 -46.5t46.5 -111.5v-1190q0 -67 -49 -115t-117 -48t-117 48t-49 115v1031h-459v-1031q0 -67 -48.5 -115t-116.5 -48q-70 0 -119 47.5t-49 115.5z" />
<glyph unicode="&#x420;" horiz-adv-x="1243" d="M154 147v1180q0 68 48 117t117 49h386q104 0 185.5 -25t133.5 -66.5t86 -98t47.5 -116t13.5 -124.5v-107q0 -192 -120 -306.5t-336 -114.5h-230v-388q0 -69 -48.5 -117t-117.5 -48t-117 48t-48 117zM485 836h215q142 0 142 127v92q0 58 -36 92.5t-132 34.5h-189v-346z " />
<glyph unicode="&#x421;" horiz-adv-x="1148" d="M127 635v223q0 115 18.5 211.5t61 178.5t107 139.5t160 89.5t216.5 32q82 0 167.5 -21t133.5 -56q72 -55 72 -127q0 -57 -40 -101.5t-110 -44.5q-41 0 -94 27q-58 28 -129 28q-117 0 -173 -84t-56 -282v-209q0 -104 15 -175.5t44.5 -111t68 -56.5t91.5 -17q87 0 149 36 q57 23 95 23q56 0 95.5 -38.5t39.5 -98.5q0 -75 -68 -129q-51 -42 -143.5 -66t-167.5 -24q-145 0 -252.5 47t-172.5 134.5t-96.5 205t-31.5 266.5z" />
<glyph unicode="&#x422;" horiz-adv-x="1263" d="M31 1331q0 67 47.5 114.5t114.5 47.5h880q66 0 113 -47.5t47 -114.5q0 -66 -47 -111.5t-113 -45.5h-274v-1029q0 -67 -49 -115t-117 -48t-117 48t-49 115v1029h-274q-68 0 -115 45.5t-47 111.5z" />
<glyph unicode="&#x423;" horiz-adv-x="1107" d="M6 1350q0 67 48 114t118 47q105 0 147 -104l263 -641q33 87 106 319q18 58 50 162.5t46 147.5q18 58 60 87t98 29q79 0 120.5 -41.5t41.5 -111.5q0 -45 -14 -88q-75 -234 -158 -465q-69 -190 -184 -461q-37 -86 -75 -147.5t-89.5 -112.5t-119 -76.5t-151.5 -25.5h-59 q-67 0 -114.5 42.5t-47.5 112.5q0 69 46 114.5t110 45.5h26q48 0 81.5 21t68.5 73l-397 869q-21 46 -21 90z" />
<glyph unicode="&#x424;" horiz-adv-x="1673" d="M111 723v49q0 87 19 165.5t61.5 150t106 124t159.5 83t215 30.5v21q0 68 48.5 116.5t115.5 48.5q69 0 117 -48.5t48 -116.5v-21q119 0 215 -30.5t159.5 -83t106.5 -124t62 -150t19 -165.5v-49q0 -87 -19 -166t-62 -150.5t-106.5 -124t-159.5 -83.5t-215 -31v-21 q0 -68 -48 -116.5t-117 -48.5q-67 0 -115.5 48.5t-48.5 116.5v21q-147 0 -258.5 46.5t-176 126.5t-95.5 176t-31 206zM440 723q0 -124 54.5 -190t177.5 -66v559q-125 0 -178.5 -65.5t-53.5 -188.5v-49zM1001 467q123 0 177.5 66t54.5 190v49q0 123 -53.5 188.5t-178.5 65.5 v-559z" />
<glyph unicode="&#x425;" horiz-adv-x="1153" d="M4 139q0 45 25 88q109 192 356 551q-195 285 -307 496q-23 48 -23 80q0 65 51.5 111t118.5 46q83 0 131 -86q78 -145 219 -364q140 216 220 362q45 88 133 88q68 0 120 -47t52 -114q0 -38 -23 -80q-120 -222 -307 -498q256 -378 354 -549q25 -48 25 -86 q0 -64 -51.5 -109.5t-116.5 -45.5q-84 0 -131 81q-98 172 -270 429q-166 -244 -273 -426q-47 -84 -133 -84q-67 0 -118.5 45.5t-51.5 111.5z" />
<glyph unicode="&#x426;" horiz-adv-x="1558" d="M154 160v1186q0 68 48 116.5t115 48.5q68 0 117 -49t49 -116v-1033h463v1033q0 68 47.5 116.5t114.5 48.5q70 0 119 -48.5t49 -116.5v-1033h106q60 0 103 -40.5t43 -100.5v-420q0 -63 -45.5 -108t-108.5 -45t-108 45t-45 108v248h-910q-66 0 -111.5 47t-45.5 113z" />
<glyph unicode="&#x427;" horiz-adv-x="1394" d="M117 975v371q0 67 49 116t117 49q70 0 119 -48.5t49 -116.5v-340q0 -108 59.5 -156.5t157.5 -48.5q111 0 239 55v490q0 67 49 116t117 49q70 0 119 -48.5t49 -116.5v-1199q0 -70 -48.5 -117.5t-119.5 -47.5q-68 0 -117 47.5t-49 117.5v414q-160 -57 -317 -57 q-100 0 -182.5 26t-149 80.5t-104 147.5t-37.5 217z" />
<glyph unicode="&#x428;" horiz-adv-x="2033" d="M154 156v1190q0 68 49 115.5t119 47.5q67 0 114 -47.5t47 -115.5v-1031h367v1031q0 68 49 115.5t119 47.5q68 0 117 -48t49 -115v-1031h362v1031q0 68 48.5 115.5t117.5 47.5t118.5 -48t49.5 -115v-1190q0 -63 -47 -109.5t-113 -46.5h-1409q-64 0 -110.5 46.5 t-46.5 109.5z" />
<glyph unicode="&#x429;" horiz-adv-x="2162" d="M154 156v1190q0 68 49 115.5t119 47.5q67 0 114 -47.5t47 -115.5v-1033h367v1033q0 68 49 115.5t119 47.5q68 0 117 -48t49 -115v-1033h362v1033q0 67 48 115t116 48q70 0 120 -47.5t50 -115.5v-1033h107q60 0 102.5 -40.5t42.5 -100.5v-420q0 -63 -45.5 -108t-108.5 -45 t-108 45t-45 108v248h-1514q-64 0 -110.5 46.5t-46.5 109.5z" />
<glyph unicode="&#x42a;" horiz-adv-x="1583" d="M20 1333q0 66 46 112t112 46h400q69 0 117 -48.5t48 -117.5v-410h269q97 0 177.5 -21t145.5 -66.5t101.5 -124.5t36.5 -187v-119q0 -84 -25 -153.5t-77.5 -125.5t-144 -87t-214.5 -31h-434q-68 0 -117 47t-49 117v1012h-234q-66 0 -112 46t-46 111zM743 303h261 q67 0 103 39.5t36 99.5v41q0 60 -39.5 100t-108.5 40h-252v-320z" />
<glyph unicode="&#x42b;" horiz-adv-x="1916" d="M154 166v1182q0 68 47 115.5t116 47.5t117.5 -47.5t48.5 -115.5v-435h267q77 0 143.5 -12.5t126 -42t101.5 -74.5t66.5 -113t24.5 -155v-117q0 -67 -15 -125t-49.5 -109t-87 -87t-131.5 -57t-179 -21h-433q-69 0 -116 48t-47 118zM483 301h260q66 0 103 40t37 99v43 q0 61 -38.5 100.5t-109.5 39.5h-252v-322zM1434 150v1198q0 68 48 115.5t115 47.5q69 0 117.5 -47.5t48.5 -115.5v-1198q0 -68 -48.5 -116t-117.5 -48q-67 0 -115 48t-48 116z" />
<glyph unicode="&#x42c;" horiz-adv-x="1323" d="M154 166v1180q0 68 47 115.5t116 47.5t117.5 -47.5t48.5 -115.5v-433h267q77 0 143.5 -12.5t126 -42t101.5 -74.5t66.5 -113t24.5 -155v-117q0 -67 -15 -125t-49.5 -109t-87 -87t-131.5 -57t-179 -21h-433q-69 0 -116 48t-47 118zM483 301h260q66 0 103 40t37 99v43 q0 61 -38.5 100.5t-109.5 39.5h-252v-322z" />
<glyph unicode="&#x42d;" horiz-adv-x="1202" d="M96 199q0 62 40.5 102.5t101.5 40.5q39 0 110 -31q68 -32 162 -32q108 0 166 61q65 68 65 199v75h-344q-64 0 -107.5 42t-43.5 110t43.5 110t107.5 42h344v59q0 124 -65 186q-59 56 -166 56q-60 0 -141 -29q-79 -27 -111 -27q-74 0 -115 42t-41 100q0 78 74 129 q112 79 322 79q153 0 258.5 -36t177.5 -119q83 -96 112 -212.5t29 -283.5v-223q0 -143 -17 -246t-67 -182q-143 -229 -493 -229q-76 0 -173.5 23t-154.5 63q-74 50 -74 131z" />
<glyph unicode="&#x42e;" horiz-adv-x="2029" d="M154 152v1198q0 69 48 117.5t117 48.5q68 0 117 -48.5t49 -117.5v-467h328v80q0 88 17.5 166t58 150t102 123.5t155.5 82.5t212 31t212 -31t155.5 -82.5t102 -123.5t58 -150t17.5 -166v-422q0 -88 -17.5 -166t-58 -150.5t-102 -124.5t-155.5 -83t-212 -31t-212 31 t-155.5 82.5t-102 124t-58 151t-17.5 166.5v51h-328v-440q0 -69 -49 -117.5t-117 -48.5q-69 0 -117 48.5t-48 117.5zM1145 541q0 -127 46.5 -191.5t166.5 -64.5t166.5 64.5t46.5 191.5v422q0 126 -46 190t-167 64t-167 -64t-46 -190v-422z" />
<glyph unicode="&#x42f;" horiz-adv-x="1288" d="M92 143q0 37 14 72q102 232 207 414q-67 36 -118 96q-86 107 -86 260v78q0 215 121 322.5t356 107.5h381q71 0 119.5 -48.5t48.5 -119.5v-1180q0 -68 -49 -115.5t-119 -47.5q-68 0 -116 48t-48 115v416h-148q-122 -203 -245 -479q-42 -100 -142 -100q-70 0 -123 45.5 t-53 115.5zM442 985q0 -69 56 -100q45 -23 106 -23h199v320h-211q-150 0 -150 -119v-78z" />
<glyph unicode="&#x430;" horiz-adv-x="1122" d="M70 315v15q0 151 110 233t309 82h158v35q0 77 -29 116.5t-100 39.5q-95 0 -172 -41q-40 -19 -72 -19q-55 0 -92 39t-37 90q0 68 64 109q116 76 338 76q226 0 325 -104t99 -347v-322q0 -13 1 -24t5 -20.5t5.5 -15t9 -14t9 -11t11.5 -12t12 -11.5q39 -43 39 -92 q0 -131 -164 -131q-68 0 -135 43q-19 12 -41 34q-104 -77 -279 -77q-180 0 -277 87t-97 242zM391 309q0 -100 127 -100q57 0 93 34.5t36 100.5v74h-117q-139 0 -139 -96v-13z" />
<glyph unicode="&#x431;" horiz-adv-x="1114" d="M102 426v354q0 131 19.5 223.5t64.5 158t104 108.5t150 84q7 3 36.5 15t45 20t37 22t31.5 30.5t10 35.5v36q0 66 47.5 114t114.5 48q68 0 115 -47.5t47 -114.5v-36q0 -52 -9.5 -95t-24.5 -75t-42 -60t-52.5 -47t-66 -38t-72.5 -31t-82 -29q-18 -5 -55 -17h39 q113 0 201 -34t142.5 -94.5t82 -139.5t27.5 -172v-219q0 -93 -27.5 -172.5t-81.5 -140.5t-142.5 -96t-201.5 -35q-92 0 -168 23t-129 63t-89.5 96t-53.5 122t-17 140zM430 426q0 -83 37 -123q29 -33 92 -33q65 0 94 39q31 42 31 117v215q0 76 -29 115q-30 41 -96 41 q-64 0 -94 -35q-35 -38 -35 -121v-215z" />
<glyph unicode="&#x432;" horiz-adv-x="1083" d="M131 162v760q0 66 47.5 113.5t116.5 47.5h280q98 0 172 -25.5t115.5 -68.5t61.5 -94t20 -109v-32q0 -143 -100 -193q69 -34 103 -94.5t34 -122.5v-39q0 -134 -88 -219.5t-266 -85.5h-332q-69 0 -116.5 48t-47.5 114zM457 258h145q25 0 41 16.5t16 42.5v35 q0 33 -16.5 51.5t-46.5 18.5h-139v-164zM457 664h100q68 0 68 55v47q0 23 -14 39t-40 16h-114v-157z" />
<glyph unicode="&#x433;" horiz-adv-x="954" d="M131 145v777q0 66 48 113.5t114 47.5h491q56 0 98 -40.5t42 -98.5t-42 -98.5t-98 -40.5h-327v-660q0 -67 -48 -114t-116 -47q-66 0 -114 47t-48 114z" />
<glyph unicode="&#x434;" horiz-adv-x="1425" d="M92 152q0 65 34.5 97t86.5 32h66q63 142 63 430v225q0 62 46 104.5t110 42.5h510q64 0 109.5 -42.5t45.5 -104.5v-655h97q56 0 95.5 -37.5t39.5 -91.5v-345q0 -58 -41.5 -99.5t-100.5 -41.5q-60 0 -100.5 41t-40.5 100v193h-737v-193q0 -59 -41 -100t-101 -41 q-59 0 -100 41t-41 100v345zM598 281h248v524h-189v-94q0 -124 -16 -241.5t-43 -188.5z" />
<glyph unicode="&#x435;" horiz-adv-x="1075" d="M102 444v191q0 93 27.5 174.5t81 145t140.5 100.5t198 37q114 0 201 -36t138 -99.5t76 -143t25 -174.5v-86q0 -47 -32 -80t-76 -33h-455v-32q0 -77 35.5 -118.5t103.5 -41.5q67 0 111.5 9t105.5 30q48 19 94.5 -6t59.5 -78q12 -54 -7.5 -95.5t-64.5 -60.5 q-149 -59 -317 -59q-97 0 -173.5 24t-127 66t-83.5 100.5t-47 124t-14 141.5zM426 678h252v22q0 144 -123 144q-62 0 -95.5 -37t-33.5 -107v-22z" />
<glyph unicode="&#x436;" horiz-adv-x="1484" d="M33 137q0 41 20 82q78 160 178 318l-176 311q-22 42 -22 80q0 68 48 113.5t114 45.5q93 0 139 -88l176 -323h68v246q0 67 48.5 114t116.5 47q66 0 114 -47t48 -114v-246h68l176 323q46 88 139 88q66 0 114 -45.5t48 -113.5q0 -36 -23 -80l-176 -311q104 -164 179 -318 q20 -41 20 -82q0 -67 -46.5 -112t-113.5 -45q-46 0 -83 23.5t-58 64.5q-106 212 -172 323h-72v-250q0 -66 -48 -113.5t-114 -47.5q-68 0 -116.5 47.5t-48.5 113.5v250h-72q-66 -111 -172 -323q-21 -41 -58 -64.5t-83 -23.5q-67 0 -113.5 45t-46.5 112z" />
<glyph unicode="&#x437;" horiz-adv-x="862" d="M55 156q0 51 35 85.5t86 34.5q28 0 82 -26q56 -27 102 -27q56 0 87.5 28t31.5 81q0 93 -102 100h-90q-48 0 -82.5 33t-34.5 82t34.5 82t82.5 33h84q123 0 123 88q0 94 -99 94q-51 0 -108 -31q-52 -29 -94 -29q-48 0 -82.5 31t-34.5 86q0 68 71 119q96 70 259 70 q74 0 134.5 -19.5t99.5 -50.5t66 -71.5t38.5 -81t11.5 -79.5q0 -167 -127 -233q139 -71 139 -254q0 -62 -25 -118.5t-72.5 -101.5t-125 -72t-174.5 -27q-188 0 -267 73q-49 49 -49 101z" />
<glyph unicode="&#x438;" horiz-adv-x="1234" d="M135 147v781q0 68 47.5 115t118.5 47t116.5 -46.5t45.5 -115.5v-338l309 295v43q0 68 47.5 115t120.5 47q72 0 116 -46.5t44 -115.5v-781q0 -70 -45.5 -116.5t-116.5 -46.5q-72 0 -119 47t-47 116v332l-309 -293v-39q0 -70 -45.5 -116.5t-120.5 -46.5t-118.5 46 t-43.5 117z" />
<glyph unicode="&#x439;" horiz-adv-x="1234" d="M135 147v781q0 68 47.5 115t118.5 47t116.5 -46.5t45.5 -115.5v-338l309 295v43q0 68 47.5 115t120.5 47q72 0 116 -46.5t44 -115.5v-781q0 -70 -45.5 -116.5t-116.5 -46.5q-72 0 -119 47t-47 116v332l-309 -293v-39q0 -70 -45.5 -116.5t-120.5 -46.5t-118.5 46 t-43.5 117zM273 1513.5q9 38.5 42 65.5q25 19 55.5 24.5t61.5 -8.5t51 -47q57 -96 131 -96q15 0 27 2.5t30.5 11t38.5 29t40 53.5q20 32 49 46t58 10t54 -21q38 -25 49 -66t-16 -90q-130 -208 -330 -208q-198 0 -325 208q-25 48 -16 86.5z" />
<glyph unicode="&#x43a;" horiz-adv-x="1038" d="M131 141v781q0 67 49 114t117 47q66 0 114 -47t48 -114v-246h67l176 323q46 88 140 88q66 0 114 -45.5t48 -113.5q0 -36 -23 -80l-176 -311q71 -112 178 -318q21 -34 21 -82q0 -67 -46.5 -112t-113.5 -45q-94 0 -142 88q-75 159 -172 323h-71v-250q0 -66 -48 -113.5 t-114 -47.5q-68 0 -117 47.5t-49 113.5z" />
<glyph unicode="&#x43b;" horiz-adv-x="1230" d="M25 141q0 43 26 86t62 99t53 118q31 108 31 344v146q0 63 45 106t108 43h590q64 0 110 -43.5t46 -105.5v-795q0 -68 -45.5 -115t-118.5 -47t-118.5 47t-45.5 115v666h-246v-94q0 -161 -28 -310.5t-80 -250.5q-40 -78 -98 -124t-128 -46q-68 0 -115.5 46.5t-47.5 114.5z " />
<glyph unicode="&#x43c;" horiz-adv-x="1339" d="M135 123v817q0 60 45 102.5t105 42.5q41 0 75.5 -22t53.5 -59l260 -508l256 508q17 37 52 59t77 22q61 0 103 -42.5t42 -102.5v-817q0 -60 -42 -103t-103 -43q-60 0 -103 43t-43 103v295l-120 -244q-19 -36 -51.5 -57t-71.5 -21q-36 0 -67.5 20t-51.5 58l-121 248v-299 q0 -60 -43 -103t-102 -43q-60 0 -105 43t-45 103z" />
<glyph unicode="&#x43d;" horiz-adv-x="1171" d="M135 143v781q0 65 49.5 113t116.5 48q66 0 114 -48t48 -113v-224h246v224q0 65 47.5 113t113.5 48q67 0 116.5 -48t49.5 -113v-781q0 -68 -49 -114.5t-117 -46.5q-67 0 -114 46.5t-47 114.5v275h-246v-275q0 -68 -47.5 -114.5t-114.5 -46.5q-68 0 -117 46.5t-49 114.5z " />
<glyph unicode="&#x43e;" horiz-adv-x="1112" d="M102 428v221q0 93 27.5 172t82 140t143 96t202.5 35q113 0 201.5 -35t142.5 -96t81.5 -140t27.5 -172v-221q0 -93 -27.5 -171.5t-81.5 -139t-142.5 -95t-201.5 -34.5q-114 0 -202.5 34.5t-143 95t-82 139t-27.5 171.5zM428 430q0 -154 129 -154t129 154v217 q0 154 -129 154t-129 -154v-217z" />
<glyph unicode="&#x43f;" horiz-adv-x="1167" d="M135 139v795q0 62 46 105.5t110 43.5h586q64 0 109.5 -43.5t45.5 -105.5v-795q0 -66 -47.5 -114t-114.5 -48t-114 48t-47 114v666h-246v-666q0 -66 -48.5 -114t-117.5 -48q-65 0 -113.5 48t-48.5 114z" />
<glyph unicode="&#x440;" horiz-adv-x="1157" d="M59 961q0 66 44 98.5t120 32.5q77 0 139 -45q24 -20 37 -33q47 35 116.5 56.5t137.5 21.5q402 0 402 -451v-156q0 -248 -87 -372.5t-294 -124.5q-114 0 -197 51v-252q0 -67 -48 -114.5t-116 -47.5q-67 0 -114 47t-47 115v973q0 15 -2.5 28t-4.5 20t-9.5 18.5t-9 13.5 t-13.5 14.5t-13 13.5q-41 41 -41 93zM477 307q52 -49 119 -49q72 0 103.5 41t31.5 121v248q0 78 -32.5 115.5t-104.5 37.5q-60 0 -117 -43v-471z" />
<glyph unicode="&#x441;" horiz-adv-x="940" d="M102 459v143q0 138 48.5 247t150.5 176t244 67q170 0 272 -60q103 -58 64 -162q-18 -52 -66.5 -72t-93.5 1q-68 30 -143 30q-70 0 -110 -49t-40 -141v-201q0 -90 34.5 -140t102.5 -50q82 0 154 33q47 21 95 -0.5t65 -73.5q33 -107 -68 -162q-111 -57 -268 -57 q-225 0 -333 128t-108 343z" />
<glyph unicode="&#x442;" horiz-adv-x="944" d="M10 950q0 55 38.5 94t94.5 39h658q53 0 93 -39.5t40 -93.5t-40 -93.5t-93 -39.5h-166v-678q0 -66 -48.5 -114t-117.5 -48q-65 0 -113.5 48t-48.5 114v678h-164q-56 0 -94.5 39t-38.5 94z" />
<glyph unicode="&#x443;" horiz-adv-x="1036" d="M31 -217q0 59 36.5 104t106.5 52q32 3 54.5 7.5t52.5 16t57.5 36t52.5 60.5q-88 218 -176.5 460t-128.5 378q-8 32 -8 49q0 65 49.5 105.5t114.5 40.5q45 0 83 -28.5t54 -82.5q84 -290 164 -520l155 522q16 55 58 82t92 27q64 0 112 -43.5t48 -110.5q0 -27 -13 -64 l-254 -718q-29 -81 -57.5 -146t-77.5 -140.5t-104 -126t-135.5 -84.5t-173.5 -34q-73 0 -117.5 47t-44.5 111z" />
<glyph unicode="&#x444;" horiz-adv-x="1556" d="M82 440v199q0 74 14.5 138t49.5 123t88 101t135.5 66.5t187.5 24.5q30 0 59 -5v115q0 68 47 115t115 47t115 -47t47 -115v-115q29 5 59 5q130 0 225.5 -37t148.5 -102t77.5 -143t24.5 -171v-199q0 -73 -14.5 -136.5t-49.5 -122t-88.5 -100.5t-136 -66.5t-187.5 -24.5 q-39 0 -59 4v-207q0 -67 -47 -114.5t-115 -47.5t-115 47.5t-47 114.5v207q-36 -4 -59 -4q-105 0 -187.5 24.5t-135.5 66.5t-88 100.5t-49.5 122t-14.5 136.5zM408 467q0 -199 172 -199q20 0 36 2v539q-20 4 -36 4q-95 0 -133.5 -53.5t-38.5 -147.5v-145zM940 270 q16 -2 37 -2q172 0 172 199v145q0 94 -38.5 147.5t-133.5 53.5q-17 0 -37 -4v-539z" />
<glyph unicode="&#x445;" horiz-adv-x="948" d="M31 129q0 33 18 70q71 148 230 342q-52 67 -79.5 104t-65.5 97.5t-62 115.5q-17 38 -17 74q0 67 52.5 111t119.5 44q105 0 152 -96q39 -94 100 -184q68 96 111 190q40 90 135 90q62 0 111 -41t49 -102q0 -30 -15 -65q-58 -138 -202 -322q54 -67 87.5 -110.5t75.5 -107.5 t70 -122q19 -43 19 -76q0 -67 -54 -112t-121 -45q-101 0 -145 94q-37 74 -133 221q-97 -138 -141 -227q-45 -88 -136 -88q-62 0 -110.5 42t-48.5 103z" />
<glyph unicode="&#x446;" horiz-adv-x="1294" d="M131 145v781q0 69 48 115t120 46q71 0 115.5 -45.5t44.5 -115.5v-647h246v647q0 70 44.5 115.5t118.5 45.5t119 -45.5t45 -115.5v-645h96q56 0 96 -37.5t40 -91.5v-345q0 -58 -41.5 -99.5t-100.5 -41.5q-60 0 -100.5 41t-40.5 100v193h-690q-64 0 -112 42t-48 103z" />
<glyph unicode="&#x447;" horiz-adv-x="1177" d="M117 676v250q0 69 47 115t115 46t114.5 -46t46.5 -115v-199q0 -64 31 -95.5t100 -31.5q76 0 148 31v295q0 69 47 115t115 46q69 0 115 -46t46 -115v-781q0 -68 -46 -114.5t-115 -46.5q-68 0 -115 47t-47 114v215q-136 -43 -242 -43q-178 0 -269 96t-91 263z" />
<glyph unicode="&#x448;" horiz-adv-x="1708" d="M135 145v781q0 68 47.5 114.5t114.5 46.5q68 0 116 -46.5t48 -114.5v-647h231v647q0 69 46.5 115t115.5 46q68 0 115 -46t47 -115v-647h233v647q0 69 46.5 115t115.5 46q68 0 115 -46t47 -115v-781q0 -61 -46 -103t-110 -42h-1126q-64 0 -110 42t-46 103z" />
<glyph unicode="&#x449;" horiz-adv-x="1830" d="M131 145v781q0 69 48.5 115t117.5 46q66 0 114 -46.5t48 -114.5v-647h229v647q0 68 47.5 114.5t114.5 46.5q68 0 117 -46.5t49 -114.5v-647h229v647q0 69 47 115t115 46t115 -46t47 -115v-645h96q56 0 95.5 -37.5t39.5 -91.5v-345q0 -59 -41 -100t-100 -41 q-60 0 -100.5 41t-40.5 100v193h-1233q-72 0 -113 41t-41 104z" />
<glyph unicode="&#x44a;" horiz-adv-x="1261" d="M20 944q0 58 41.5 98.5t98.5 40.5h321q64 0 110 -42.5t46 -104.5v-236h149q58 0 109.5 -9t101 -32t84.5 -57.5t56.5 -89t21.5 -123.5v-80q0 -137 -92.5 -223t-280.5 -86h-313q-66 0 -114 44t-48 110v651h-151q-57 0 -98.5 41t-41.5 98zM637 281h145q56 0 56 51v37 q0 51 -62 51h-139v-139z" />
<glyph unicode="&#x44b;" horiz-adv-x="1597" d="M135 152v770q0 69 47 115t115 46t115 -46t47 -115v-224h149q74 0 137 -15.5t118.5 -50t87.5 -97t32 -148.5v-80q0 -136 -93 -221.5t-282 -85.5h-315q-65 0 -111.5 43t-46.5 109zM459 279h145q55 0 55 51v39q0 49 -61 49h-139v-139zM1137 141v781q0 68 47.5 114.5 t115.5 46.5q67 0 114.5 -46.5t47.5 -114.5v-781q0 -67 -48 -114t-114 -47q-68 0 -115.5 47t-47.5 114z" />
<glyph unicode="&#x44c;" horiz-adv-x="1081" d="M131 152v770q0 69 47 115t115 46t115 -46t47 -115v-224h149q74 0 137 -15.5t118.5 -50t87.5 -97t32 -148.5v-80q0 -135 -93.5 -221t-281.5 -86h-315q-65 0 -111.5 43t-46.5 109zM455 279h145q55 0 55 51v39q0 49 -61 49h-139v-139z" />
<glyph unicode="&#x44d;" horiz-adv-x="1015" d="M82 201q10 52 55.5 76.5t95.5 7.5q63 -24 107 -33.5t111 -9.5q68 0 103.5 40.5t35.5 118.5v33h-184q-49 0 -83 33.5t-34 81.5q0 52 33.5 86.5t83.5 34.5h184v22q0 72 -34 108t-95 36q-24 0 -47 -2.5t-38 -5t-38 -9.5t-32.5 -10.5t-36 -13.5t-33.5 -13q-48 -17 -94 7.5 t-58 76.5q-13 54 6.5 95.5t65.5 60.5q146 61 311 61q89 0 162.5 -24t125.5 -66t88 -100t53 -125t17 -141v-191q0 -95 -23.5 -174t-73.5 -144t-138.5 -101.5t-208.5 -36.5q-170 0 -317 65q-46 19 -65.5 61t-4.5 95z" />
<glyph unicode="&#x44e;" horiz-adv-x="1697" d="M131 147v779q0 67 48 115.5t114 48.5q67 0 115.5 -48t48.5 -116v-224h233q0 11 4 35q28 169 146 261t301 92q114 0 202.5 -35t142.5 -96t81.5 -140t27.5 -172v-221q0 -93 -27.5 -171.5t-81.5 -139t-142.5 -95t-202.5 -34.5q-210 0 -331.5 110t-121.5 291v37h-231v-277 q0 -67 -48 -114t-116 -47q-66 0 -114 47t-48 114zM1012 428q0 -154 129 -154t129 154v217q0 154 -129 154t-129 -154v-217z" />
<glyph unicode="&#x44f;" horiz-adv-x="1054" d="M96 133q0 29 17 78q40 90 127 229q-134 76 -134 285v49q0 61 20 114t61.5 97.5t115 70t170.5 25.5h285q67 0 114.5 -47.5t47.5 -113.5v-775q0 -67 -47 -114t-115 -47t-115 47t-47 114v256h-53q-49 -92 -146 -321q-34 -96 -147 -96q-63 0 -108.5 41.5t-45.5 107.5z M424 707q0 -27 19 -44.5t55 -17.5h98v174h-107q-33 0 -49 -19.5t-16 -45.5v-47z" />
<glyph unicode="&#x451;" horiz-adv-x="1122" d="M102 444v191q0 93 27.5 174t81 145t140.5 101t198 37q114 0 201 -36t138 -99.5t76 -143t25 -174.5v-86q0 -47 -32 -80t-76 -33h-455v-32q0 -78 37 -121t108 -43q76 0 142 20q10 3 29 10t29 10t25.5 6t30.5 3q54 0 83.5 -33.5t29.5 -89.5q0 -90 -127 -141 q-108 -41 -266 -41q-97 0 -173.5 24t-127 66t-83.5 100.5t-47 124t-14 141.5zM176 1389q0 66 45 111.5t111 45.5t111.5 -45.5t45.5 -111.5t-45.5 -111t-111.5 -45t-111 45t-45 111zM426 678h252v22q0 144 -123 144q-62 0 -95.5 -37t-33.5 -107v-22zM594 1389q0 66 45 111.5 t111 45.5t111.5 -45.5t45.5 -111.5t-45.5 -111t-111.5 -45t-111 45t-45 111z" />
<glyph unicode="&#x452;" horiz-adv-x="1204" d="M6 1174q0 55 38.5 94t92.5 39h23v28q0 69 46.5 115.5t115.5 46.5q68 0 114.5 -46.5t46.5 -115.5v-28h140q55 0 94 -38.5t39 -94.5q0 -54 -39 -93t-94 -39h-140v-86q109 50 228 50q193 0 277.5 -101t84.5 -295v-426q0 -262 -86 -391q-97 -145 -248 -145q-77 0 -123.5 42 t-46.5 103q0 37 16.5 68t34.5 46.5t48 35.5q40 27 60 65.5t20 118.5v444q0 129 -132 129q-30 0 -67 -14t-66 -37v-506q0 -67 -46.5 -114t-114.5 -47q-69 0 -115.5 46.5t-46.5 114.5v899h-23q-54 0 -92.5 39t-38.5 93z" />
<glyph unicode="&#x453;" horiz-adv-x="1054" d="M131 145v777q0 66 48 113.5t114 47.5h491q56 0 98 -40.5t42 -98.5t-42 -98.5t-98 -40.5h-327v-660q0 -67 -48 -114t-116 -47q-66 0 -114 47t-48 114zM395 1321q0 28 23 82l76 166q20 43 47.5 63.5t74.5 20.5q60 0 92.5 -36.5t32.5 -90.5q0 -35 -36 -101l-82 -133 q-27 -43 -54.5 -61.5t-68.5 -18.5q-48 0 -76.5 32t-28.5 77z" />
<glyph unicode="&#x454;" horiz-adv-x="997" d="M102 440v193q0 93 27 174t80 145t140.5 101t199.5 37q153 0 311 -66q46 -17 65.5 -58t4.5 -94q-12 -54 -57 -79.5t-95 -8.5q-8 3 -40 15.5t-44.5 16.5t-38.5 11.5t-49.5 10t-50.5 2.5q-63 0 -96 -37t-33 -107v-22h180q50 0 85.5 -35.5t35.5 -83.5q0 -50 -35 -85.5 t-86 -35.5h-180v-33q0 -157 139 -157q63 0 108 10.5t109 34.5q47 17 92 -8.5t60 -79.5q13 -51 -7 -91t-65 -61q-150 -65 -317 -65q-119 0 -207.5 36.5t-138.5 101.5t-73.5 144t-23.5 174z" />
<glyph unicode="&#x455;" horiz-adv-x="1021" d="M111 201q18 58 69.5 81.5t104.5 4.5q42 -14 59.5 -19.5t58 -11.5t89.5 -6q62 0 99.5 19.5t37.5 52.5q0 26 -15.5 43.5t-46 27.5t-62 16t-78.5 14.5t-81 18.5q-50 14 -88 34t-73 54.5t-53.5 89.5t-18.5 128q0 83 32.5 150t88 108.5t127 63.5t151.5 22q167 0 297 -45 q54 -19 78.5 -66.5t9.5 -101.5q-17 -53 -66 -79t-102 -9q-125 38 -199 38q-57 0 -85.5 -17.5t-28.5 -41.5q0 -20 10 -35t24 -24t40.5 -17t49 -12t60.5 -11.5t64 -13.5q46 -11 81 -23.5t72.5 -37t62 -57t40.5 -84t16 -117.5q0 -93 -39 -163.5t-105 -109.5t-142.5 -58 t-162.5 -19q-168 0 -299 43q-50 17 -71 67t-6 103z" />
<glyph unicode="&#x456;" horiz-adv-x="587" d="M115 1368q0 75 52 127.5t126 52.5q75 0 127.5 -52.5t52.5 -127.5q0 -74 -52.5 -126t-127.5 -52q-73 0 -125.5 52t-52.5 126zM131 150v778q0 67 48 115.5t114 48.5q67 0 115.5 -48t48.5 -116v-778q0 -67 -48 -114.5t-116 -47.5q-66 0 -114 47.5t-48 114.5z" />
<glyph unicode="&#x457;" horiz-adv-x="589" d="M-70 1389q0 66 45 111.5t111 45.5t112 -45.5t46 -111.5t-46 -111t-112 -45t-111 45t-45 111zM131 150v778q0 67 48 115.5t114 48.5q67 0 115.5 -48t48.5 -116v-778q0 -67 -48 -114.5t-116 -47.5q-66 0 -114 47.5t-48 114.5zM348 1389q0 66 45 111.5t111 45.5t112 -45.5 t46 -111.5t-46 -111t-112 -45t-111 45t-45 111z" />
<glyph unicode="&#x458;" horiz-adv-x="567" d="M-150 -244q0 56 35.5 89.5t98.5 41.5q78 11 112.5 55t34.5 138v848q0 67 48 115.5t114 48.5q71 0 117.5 -49.5t46.5 -114.5v-826q0 -231 -117.5 -354t-355.5 -123q-63 0 -98.5 37t-35.5 94zM115 1368q0 75 52 127.5t126 52.5q75 0 127.5 -52.5t52.5 -127.5 q0 -74 -52.5 -126t-127.5 -52q-73 0 -125.5 52t-52.5 126z" />
<glyph unicode="&#x459;" horiz-adv-x="1720" d="M25 141q0 43 26 86t62 99t53 118q31 108 31 344v146q0 63 45 106t110 43h586q64 0 110 -43.5t46 -105.5v-234h147q59 0 111.5 -9t102 -31.5t85 -56.5t57 -88t21.5 -122v-82q0 -138 -93.5 -224.5t-283.5 -86.5h-309q-67 0 -115.5 45t-48.5 111v649h-246v-94 q0 -161 -28 -310.5t-80 -250.5q-40 -78 -98 -124t-128 -46q-68 0 -115.5 46.5t-47.5 114.5zM1094 283h145q55 0 55 51v37q0 51 -61 51h-139v-139z" />
<glyph unicode="&#x45a;" horiz-adv-x="1654" d="M131 145v777q0 67 48 116t114 49q67 0 114.5 -48.5t47.5 -116.5v-224h250v224q0 68 46.5 116.5t114.5 48.5q67 0 114.5 -48.5t47.5 -116.5v-224h148q74 0 138 -15.5t119 -49t87 -95.5t32 -147v-82q0 -138 -93.5 -224.5t-282.5 -86.5h-310q-68 0 -114.5 48t-46.5 114v260 h-250v-275q0 -69 -47 -116t-115 -47q-67 0 -114.5 47.5t-47.5 115.5zM1028 281h146q55 0 55 51v37q0 21 -14.5 36t-47.5 15h-139v-139z" />
<glyph unicode="&#x45b;" horiz-adv-x="1193" d="M8 1174q0 54 39 93.5t94 39.5h19v30q0 67 48 114.5t116 47.5q67 0 114 -48t47 -114v-30h142q54 0 91.5 -39.5t37.5 -93.5q0 -53 -38 -92.5t-91 -39.5h-142v-88q99 52 226 52q183 0 274 -97q88 -95 88 -299v-465q0 -69 -46.5 -116t-115.5 -47q-68 0 -114.5 47t-46.5 116 v426q0 76 -43 107q-34 24 -91 24q-28 0 -65.5 -14.5t-65.5 -38.5v-504q0 -69 -46.5 -116t-114.5 -47q-69 0 -116.5 47t-47.5 116v897h-19q-55 0 -94 39.5t-39 92.5z" />
<glyph unicode="&#x45c;" horiz-adv-x="1038" d="M131 141v781q0 67 49 114t117 47q66 0 114 -47t48 -114v-246h67l176 323q46 88 140 88q66 0 114 -45.5t48 -113.5q0 -36 -23 -80l-176 -311q71 -112 178 -318q21 -34 21 -82q0 -67 -46.5 -112t-113.5 -45q-94 0 -142 88q-75 159 -172 323h-71v-250q0 -66 -48 -113.5 t-114 -47.5q-68 0 -117 47.5t-49 113.5zM449 1321q0 30 22 82l76 166q20 43 48 63.5t75 20.5q60 0 92.5 -36.5t32.5 -90.5q0 -33 -37 -101l-82 -133q-27 -43 -54.5 -61.5t-68.5 -18.5q-48 0 -76 32t-28 77z" />
<glyph unicode="&#x45e;" horiz-adv-x="1036" d="M31 -217q0 59 36.5 104t106.5 52q32 3 54.5 7.5t52.5 16t57.5 36t52.5 60.5q-88 218 -176.5 460t-128.5 378q-8 32 -8 49q0 65 49.5 105.5t114.5 40.5q45 0 83 -28.5t54 -82.5q84 -290 164 -520l155 522q16 55 58 82t92 27q64 0 112 -43.5t48 -110.5q0 -27 -13 -64 l-254 -718q-29 -81 -57.5 -146t-77.5 -140.5t-104 -126t-135.5 -84.5t-173.5 -34q-73 0 -117.5 47t-44.5 111zM209 1491q0 55 45 88q31 25 74 25q58 0 94 -56q57 -96 131 -96q15 0 27 2.5t30 11t38 29t40 53.5q36 56 94 56q38 0 68 -21q51 -33 51 -92q0 -34 -18 -64 q-130 -208 -330 -208q-199 0 -326 208q-18 35 -18 64z" />
<glyph unicode="&#x45f;" horiz-adv-x="1167" d="M135 150v774q0 72 41 117.5t121 45.5t122 -46t42 -117v-641h246v641q0 72 41 117.5t120 45.5q80 0 122 -46t42 -117v-774q0 -70 -43.5 -110t-109.5 -40h-134v-111q0 -70 -41.5 -115.5t-119.5 -45.5t-120 45.5t-42 115.5v111h-131q-66 0 -111 40.5t-45 109.5z" />
<glyph unicode="&#x472;" horiz-adv-x="1343" d="M127 537v424q0 88 17 165.5t57.5 149.5t102 124t155.5 82.5t213 30.5q146 0 255 -46t170.5 -125.5t90.5 -174.5t29 -206v-424q0 -88 -17.5 -166t-58 -150.5t-102 -124.5t-155.5 -83t-212 -31q-119 0 -213 31t-155.5 83t-102 124.5t-57.5 150.5t-17 166zM459 532 q0 -125 41 -182q48 -69 172 -69t172 69q41 57 41 182v132h-426v-132zM459 930h426v31q0 125 -41 182q-48 69 -172 69t-172 -69q-41 -57 -41 -182v-31z" />
<glyph unicode="&#x473;" horiz-adv-x="1112" d="M102 426v221q0 93 27.5 172t82 140t143 96t202.5 35q113 0 201.5 -35t142.5 -96t81.5 -140t27.5 -172v-221q0 -93 -27.5 -171.5t-81.5 -139t-142.5 -95t-201.5 -34.5q-114 0 -202.5 34.5t-143 95t-82 139t-27.5 171.5zM428 408q0 -84 37 -121q29 -33 92 -33t92 33 q37 37 37 121v32h-258v-32zM428 655h258v29q0 62 -37 102q-29 33 -92 33q-59 0 -92 -33q-37 -37 -37 -102v-29z" />
<glyph unicode="&#x490;" horiz-adv-x="1128" d="M154 145v1190q0 65 45.5 111.5t111.5 46.5h385l138 299q14 33 44 53.5t72 20.5q59 0 92 -36.5t33 -86.5q0 -35 -22 -68l-111 -182q64 0 110 -46.5t46 -111.5t-46 -111t-110 -46h-459v-1033q0 -68 -47.5 -115.5t-118.5 -47.5t-117 47t-46 116z" />
<glyph unicode="&#x491;" horiz-adv-x="950" d="M131 145v775q0 66 48 113.5t114 47.5h246l137 299q14 32 44.5 53t67.5 21q60 0 97 -36.5t37 -84.5q0 -33 -19 -61l-119 -191q56 0 98 -40.5t42 -98.5t-42 -98.5t-98 -40.5h-327v-658q0 -67 -48 -114t-116 -47q-66 0 -114 47t-48 114z" />
<glyph unicode="&#x492;" horiz-adv-x="1175" d="M20 745q0 63 44.5 108.5t107.5 45.5h72v436q0 65 45.5 111.5t111.5 46.5h592q64 0 110 -46.5t46 -111.5q0 -66 -45.5 -111.5t-110.5 -45.5h-418v-279h269q63 0 107 -45.5t44 -108.5t-44 -107t-107 -44h-269v-447q0 -69 -48 -117t-117 -48t-117.5 48t-48.5 117v447h-72 q-63 0 -107.5 44t-44.5 107z" />
<glyph unicode="&#x493;" horiz-adv-x="907" d="M-63 535q0 53 37 91t92 38h69v266q0 62 46 105.5t110 43.5h457q53 0 93 -39.5t40 -93.5t-40 -93.5t-93 -39.5h-285v-149h176q51 0 90 -38.5t39 -90.5t-39 -90.5t-90 -38.5h-176v-267q0 -66 -48.5 -114t-117.5 -48q-65 0 -113.5 48t-48.5 114v267h-69q-55 0 -92 38t-37 91 z" />
<glyph unicode="&#x496;" horiz-adv-x="2146" d="M27 147q0 42 22 84q127 246 293 514l-289 517q-22 39 -22 84q0 71 48.5 118t119.5 47q93 0 143 -88l281 -524h194v447q0 68 48.5 116.5t115.5 48.5q68 0 117 -49t49 -116v-447h194l281 524q50 88 143 88q71 0 119.5 -47t48.5 -118q0 -45 -22 -84l-289 -517 q127 -205 254 -440h100q60 0 104 -41.5t44 -99.5v-412q0 -63 -45.5 -108t-108.5 -45q-64 0 -108.5 45t-44.5 108v230h-43h-7q-101 0 -145 86q-4 8 -39 78.5t-45.5 91t-42 81.5t-50 95.5t-47 85t-55.5 94.5h-196v-447q0 -67 -49 -116t-117 -49q-67 0 -115.5 48.5t-48.5 116.5 v447h-196q-27 -44 -55.5 -94.5t-47 -85t-50 -95.5t-42 -81.5t-45.5 -91t-39 -78.5q-44 -86 -145 -86q-75 0 -122.5 46.5t-47.5 118.5z" />
<glyph unicode="&#x497;" horiz-adv-x="1642" d="M33 141q0 41 20 82q78 160 178 318l-176 311q-22 42 -22 80q0 68 48 114t114 46q93 0 139 -88l176 -324h68v246q0 67 48.5 114t116.5 47q66 0 114 -47t48 -114v-246h68l176 324q46 88 139 88q66 0 114 -46t48 -114q0 -36 -23 -80l-176 -311q84 -135 150 -260h92 q56 0 95.5 -37.5t39.5 -91.5v-345q0 -59 -41 -100t-100 -41q-60 0 -100.5 41t-40.5 100v177h-56q-46 0 -83 23.5t-58 64.5q-106 212 -172 323h-72v-250q0 -66 -48 -113.5t-114 -47.5q-68 0 -116.5 47.5t-48.5 113.5v250h-72q-66 -111 -172 -323q-21 -41 -58 -64.5t-83 -23.5 q-67 0 -113.5 45t-46.5 112z" />
<glyph unicode="&#x498;" horiz-adv-x="1081" d="M55 203q0 60 39.5 100.5t95.5 40.5q44 0 105 -39q59 -39 145 -39q90 0 142.5 49t52.5 140q0 168 -189 168h-110q-57 0 -97 40.5t-40 98.5t40 98.5t97 40.5h117q200 0 200 154q0 72 -39 118t-125 46q-95 0 -165 -45q-2 -1 -14.5 -8t-17 -9.5t-16.5 -8t-20 -7.5t-20.5 -4 t-24.5 -2q-51 0 -89 35.5t-38 101.5q0 89 84 151q121 88 338 88q95 0 173 -25.5t128 -67t84 -95t48.5 -107t14.5 -106.5q0 -251 -213 -338q230 -84 230 -362q0 -126 -73 -233t-210 -159v-254q0 -67 -49 -115t-117 -48t-117 48t-49 115v224q-172 18 -243 92q-58 58 -58 123z " />
<glyph unicode="&#x499;" horiz-adv-x="862" d="M55 156q0 51 35 85.5t86 34.5q28 0 82 -26q56 -27 102 -27q56 0 87.5 28t31.5 81q0 93 -102 100h-90q-48 0 -82.5 33t-34.5 82t34.5 82t82.5 33h84q123 0 123 88q0 94 -99 94q-51 0 -108 -31q-52 -29 -94 -29q-48 0 -82.5 31t-34.5 86q0 68 71 119q96 70 259 70 q74 0 134.5 -19.5t99.5 -50.5t66 -71.5t38.5 -81t11.5 -79.5q0 -167 -127 -233q139 -71 139 -254q0 -86 -46.5 -159.5t-135.5 -116.5l2 -21v-197q0 -58 -41.5 -99.5t-100.5 -41.5q-60 0 -100.5 41t-40.5 100v177q-139 12 -201 71q-49 49 -49 101z" />
<glyph unicode="&#x49a;" horiz-adv-x="1482" d="M154 147v1199q0 68 48 116.5t115 48.5q68 0 117 -49t49 -116v-447h195l280 524q50 88 144 88q71 0 119.5 -47t48.5 -118q0 -43 -23 -84l-289 -517q127 -205 254 -440h101q60 0 103.5 -41.5t43.5 -99.5v-412q0 -63 -45 -108t-108 -45q-64 0 -109 45t-45 108v230h-49 q-102 0 -146 86q-7 13 -47 93.5t-56 112.5t-50 97t-63.5 117.5t-61.5 105.5h-197v-447q0 -67 -49 -116t-117 -49q-67 0 -115 48.5t-48 116.5z" />
<glyph unicode="&#x49b;" horiz-adv-x="1198" d="M131 145v781q0 67 49 114t117 47q66 0 114 -47t48 -114v-246h67l176 324q46 88 140 88q66 0 114 -46t48 -114q0 -36 -23 -80l-176 -311q73 -118 147 -260h95q56 0 95.5 -37.5t39.5 -91.5v-345q0 -58 -41.5 -99.5t-100.5 -41.5q-60 0 -100.5 41t-40.5 100v177h-43h-12 q-94 0 -142 88q-75 159 -172 323h-71v-250q0 -66 -48 -113.5t-114 -47.5q-68 0 -117 47.5t-49 113.5z" />
<glyph unicode="&#x49c;" horiz-adv-x="1566" d="M154 147v1199q0 68 48 116.5t115 48.5q68 0 117 -49t49 -116v-447h115v184q0 57 39 96.5t96 39.5q56 0 94.5 -39.5t38.5 -96.5v-184h78l281 524q50 88 143 88q71 0 119.5 -47t48.5 -118q0 -43 -23 -84l-288 -517q166 -268 293 -514q22 -42 22 -84q0 -72 -47.5 -118.5 t-122.5 -46.5q-101 0 -145 86q-4 8 -39 78.5t-45.5 91t-42 81.5t-50 95.5t-47 85t-55.5 94.5h-80v-184q0 -56 -39 -96t-94 -40q-57 0 -96 40t-39 96v184h-115v-447q0 -67 -49 -116t-117 -49q-67 0 -115 48.5t-48 116.5z" />
<glyph unicode="&#x49d;" horiz-adv-x="1380" d="M131 141v781q0 67 49 114t117 47q66 0 114 -47t48 -114v-246h90v86q0 52 36.5 88.5t88.5 36.5q51 0 87 -36.5t36 -88.5v-86h71l176 323q46 88 140 88q66 0 114 -45.5t48 -113.5q0 -36 -23 -80l-176 -311q71 -112 178 -318q21 -34 21 -82q0 -67 -46.5 -112t-113.5 -45 q-94 0 -142 88q-75 159 -172 323h-75v-86q0 -51 -36 -88t-87 -37q-52 0 -88.5 37t-36.5 88v86h-90v-250q0 -66 -48 -113.5t-114 -47.5q-68 0 -117 47.5t-49 113.5z" />
<glyph unicode="&#x4a0;" horiz-adv-x="1560" d="M20 1333q0 66 46 112t112 46h397q69 0 117.5 -48.5t48.5 -117.5v-426h195l281 524q50 88 143 88q71 0 119.5 -47t48.5 -118q0 -43 -23 -84l-288 -517q160 -258 292 -514q23 -44 23 -84q0 -72 -47.5 -118.5t-122.5 -46.5q-101 0 -145 86q-4 8 -39 78.5t-45.5 91t-42 81.5 t-50 95.5t-47 85t-55.5 94.5h-197v-447q0 -67 -49 -116t-117 -49q-67 0 -115 48.5t-48 116.5v1029h-234q-66 0 -112 46t-46 111z" />
<glyph unicode="&#x4a1;" horiz-adv-x="1218" d="M20 940q0 58 41.5 98.5t98.5 40.5h323q64 0 110 -42.5t46 -104.5v-256h68l176 323q46 88 139 88q66 0 114 -45.5t48 -113.5q0 -36 -23 -80l-176 -311q77 -121 178 -316q21 -40 21 -84q0 -67 -46.5 -112t-113.5 -45q-46 0 -83 23.5t-58 64.5q-106 212 -172 323h-72v-250 q0 -66 -48 -113.5t-114 -47.5q-68 0 -117 47.5t-49 113.5v660h-151q-57 0 -98.5 41t-41.5 98z" />
<glyph unicode="&#x4a2;" horiz-adv-x="1609" d="M154 145v1198q0 70 48 118t117 48q68 0 116 -48t48 -118v-464h461v464q0 70 48 118t116 48q69 0 117.5 -48t48.5 -118v-1030h160q60 0 102.5 -40.5t42.5 -100.5v-420q0 -63 -45.5 -108t-108.5 -45t-108 45t-45 108v230h-158h-6q-68 0 -116 48t-48 115v441h-461v-441 q0 -67 -48 -115t-116 -48q-69 0 -117 47.5t-48 115.5z" />
<glyph unicode="&#x4a3;" horiz-adv-x="1347" d="M135 143v781q0 65 49.5 113t116.5 48q66 0 114 -48t48 -113v-224h246v224q0 65 47.5 113t113.5 48q67 0 116.5 -48t49.5 -113v-643h146q56 0 95.5 -37.5t39.5 -91.5v-345q0 -59 -41.5 -100t-99.5 -41q-60 0 -101 41t-41 100v175h-162h-2q-67 0 -114 46.5t-47 114.5v275 h-246v-275q0 -68 -47.5 -114.5t-114.5 -46.5q-68 0 -117 46.5t-49 114.5z" />
<glyph unicode="&#x4aa;" horiz-adv-x="1148" d="M127 635v223q0 115 18.5 211.5t61 178.5t107 139.5t160 89.5t216.5 32q82 0 167.5 -21t133.5 -56q72 -55 72 -127q0 -57 -40 -101.5t-110 -44.5q-41 0 -94 27q-58 28 -129 28q-117 0 -173 -84t-56 -282v-209q0 -104 15 -175.5t44.5 -111t68 -56.5t91.5 -17q82 0 149 34 q52 25 95 25q56 0 95.5 -38.5t39.5 -98.5q0 -75 -68 -129q-56 -48 -162 -72v-244q0 -63 -45 -108t-108 -45t-108.5 45t-45.5 108v242q-395 89 -395 637z" />
<glyph unicode="&#x4ab;" horiz-adv-x="940" d="M102 459v143q0 138 48.5 247t150.5 176t244 67q170 0 272 -60q103 -58 64 -162q-18 -52 -66.5 -72t-93.5 1q-68 30 -143 30q-70 0 -110 -49t-40 -141v-201q0 -90 34.5 -140t102.5 -50q82 0 154 33q47 21 95 -0.5t65 -73.5q33 -107 -68 -162q-71 -38 -145 -47v-191 q0 -58 -41.5 -99.5t-100.5 -41.5q-60 0 -100.5 41t-40.5 100v201q-143 41 -212 159.5t-69 291.5z" />
<glyph unicode="&#x4ae;" horiz-adv-x="1097" d="M0 1352q0 68 52.5 113.5t119.5 45.5q44 0 81.5 -24.5t59.5 -73.5q99 -224 240 -493q144 279 240 495q44 96 139 96q64 0 115 -44.5t51 -110.5q0 -28 -17 -70q-154 -344 -368 -735v-404q0 -69 -48.5 -117t-117.5 -48t-117.5 48t-48.5 117v402q-213 393 -365 731 q-16 33 -16 72z" />
<glyph unicode="&#x4af;" horiz-adv-x="1083" d="M39 899q-26 77 24.5 130.5t126.5 53.5q47 0 85.5 -25.5t56.5 -76.5q113 -350 203 -582q63 163 208 582q19 51 58.5 76.5t87.5 25.5q78 0 130 -56.5t23 -137.5q-137 -394 -346 -846v-264q0 -67 -48 -114.5t-116 -47.5q-65 0 -112 47.5t-47 114.5v241q-221 523 -334 879z " />
<glyph unicode="&#x4b0;" horiz-adv-x="1097" d="M0 1352q0 68 52.5 113.5t119.5 45.5q44 0 81.5 -24.5t59.5 -73.5q99 -224 240 -493q144 279 240 495q44 96 139 96q64 0 115 -44.5t51 -110.5q0 -28 -17 -70q-154 -344 -368 -735h235q53 0 91 -37.5t38 -91.5q0 -52 -38.5 -90.5t-90.5 -38.5h-235v-146q0 -69 -48.5 -117 t-117.5 -48t-117.5 48t-48.5 117v146h-231q-54 0 -92 38t-38 91q0 54 38 91.5t92 37.5h229q-199 365 -363 729q-16 33 -16 72z" />
<glyph unicode="&#x4b1;" horiz-adv-x="1083" d="M39 899q-26 77 24.5 130.5t126.5 53.5q47 0 85.5 -25.5t56.5 -76.5q113 -350 203 -582q63 163 208 582q19 51 58.5 76.5t87.5 25.5q78 0 130 -56.5t23 -137.5q-125 -360 -315 -780h184q50 0 85.5 -35t35.5 -86q0 -50 -36 -85.5t-85 -35.5h-215v-88q0 -67 -48 -114.5 t-116 -47.5q-65 0 -112 47.5t-47 114.5v88h-201q-51 0 -86 35.5t-35 85.5q0 51 35 86t86 35h164q-195 468 -297 790z" />
<glyph unicode="&#x4b2;" horiz-adv-x="1359" d="M4 139q0 45 25 88q109 192 356 551q-195 285 -307 496q-23 48 -23 80q0 65 51.5 111t118.5 46q83 0 131 -86q78 -145 219 -364q140 216 220 362q45 88 133 88q68 0 120 -47t52 -114q0 -38 -23 -80q-120 -222 -307 -498q20 -30 75.5 -112.5t83.5 -125t70.5 -108.5 t75.5 -121h115q60 0 103.5 -41.5t43.5 -99.5v-412q0 -63 -45 -108t-108 -45q-64 0 -109 45t-45 108v230h-49q-84 0 -131 81q-98 172 -270 429q-166 -244 -273 -426q-47 -84 -133 -84q-67 0 -118.5 45.5t-51.5 111.5z" />
<glyph unicode="&#x4b3;" horiz-adv-x="1114" d="M31 129q0 33 18 70q71 148 230 342q-52 67 -79.5 104t-65.5 97.5t-62 115.5q-17 38 -17 74q0 67 52.5 111t119.5 44q105 0 152 -96q39 -94 100 -184q68 96 111 190q40 90 135 90q62 0 111 -41t49 -102q0 -30 -15 -65q-58 -138 -202 -322q53 -66 74 -93.5t59.5 -82.5 t64.5 -100h82q56 0 95.5 -37.5t39.5 -91.5v-345q0 -59 -41.5 -100t-99.5 -41q-60 0 -100.5 41t-40.5 100v177h-56q-101 0 -145 94q-37 74 -133 221q-97 -138 -141 -227q-45 -88 -136 -88q-62 0 -110.5 42t-48.5 103z" />
<glyph unicode="&#x4b8;" horiz-adv-x="1421" d="M117 975v371q0 67 49 116t117 49q70 0 119 -48.5t49 -116.5v-340q0 -150 116 -191v197q0 52 36.5 88.5t88.5 36.5q51 0 87 -36.5t36 -88.5v-193q70 16 119 37v490q0 67 49 116t117 49q70 0 119 -48.5t49 -116.5v-1199q0 -70 -48.5 -117.5t-119.5 -47.5q-68 0 -117 47.5 t-49 117.5v414q-53 -20 -119 -33v-174q0 -51 -36 -88t-87 -37q-52 0 -88.5 37t-36.5 88v150q-76 2 -141.5 19t-123 54t-98 90.5t-64 132t-23.5 175.5z" />
<glyph unicode="&#x4b9;" horiz-adv-x="1206" d="M117 709v217q0 69 47 115t115 46t114.5 -46t46.5 -115v-199q0 -98 64 -123v166q0 41 28.5 69.5t69.5 28.5q39 0 67.5 -28.5t28.5 -69.5v-158q26 8 50 19v295q0 69 46 115t115 46t115.5 -46t46.5 -115v-781q0 -68 -46.5 -114.5t-115.5 -46.5t-115 46.5t-46 114.5v215 q-46 -13 -50 -14v-96q0 -40 -29 -69t-67 -29q-41 0 -69.5 29t-28.5 69v67h-10q-185 0 -281 106.5t-96 285.5z" />
<glyph unicode="&#x4ba;" horiz-adv-x="1394" d="M154 145v1198q0 70 48.5 118t119.5 48q68 0 116.5 -48t48.5 -118v-352q163 58 318 58q100 0 182.5 -26t149 -80.5t104 -147.5t37.5 -217v-433q0 -67 -49 -116t-117 -49q-70 0 -119 48.5t-49 116.5v402q0 108 -59.5 156.5t-157.5 48.5q-110 0 -240 -56v-551 q0 -67 -48.5 -116t-116.5 -49q-70 0 -119 48.5t-49 116.5z" />
<glyph unicode="&#x4bb;" horiz-adv-x="1163" d="M131 150v1171q0 67 48 114.5t114 47.5q68 0 116 -47.5t48 -114.5v-281q96 52 225 52q185 0 267.5 -102t82.5 -292v-548q0 -68 -47 -115t-115 -47t-115.5 47.5t-47.5 114.5v507q0 129 -119 129q-78 0 -131 -59v-577q0 -67 -48 -114.5t-116 -47.5q-66 0 -114 47.5 t-48 114.5z" />
<glyph unicode="&#x4d8;" horiz-adv-x="1343" d="M127 575v173q0 63 40 102t101 39h617v65q0 122 -55 189t-158 67q-95 0 -201 -36q-95 -35 -152 -35q-60 0 -99.5 40.5t-39.5 104.5q0 108 150 170q143 57 342 57q127 0 223.5 -30t157 -81t98 -127t52 -159t14.5 -186v-353q0 -130 -34 -237.5t-101 -188t-175 -125 t-248 -44.5q-141 0 -245.5 45t-166 127t-91 187.5t-29.5 235.5zM459 512q0 -244 209 -244q108 0 162.5 63t54.5 181v72h-426v-72z" />
<glyph unicode="&#x4d9;" horiz-adv-x="1075" d="M86 438v103q0 47 32 79.5t77 32.5h454v17q0 164 -143 164q-69 0 -152 -27q-67 -23 -102 -23q-51 0 -84 34t-33 87q0 87 117 137q115 48 276 48q445 0 445 -457v-191q0 -93 -27.5 -174t-81 -144.5t-140.5 -100.5t-198 -37q-114 0 -201 36t-138 99t-76 143t-25 174z M397 377q0 -144 123 -144q62 0 95.5 37t33.5 107v39h-252v-39z" />
<glyph unicode="&#x2000;" horiz-adv-x="1034" />
<glyph unicode="&#x2001;" horiz-adv-x="2068" />
<glyph unicode="&#x2002;" horiz-adv-x="1034" />
<glyph unicode="&#x2003;" horiz-adv-x="2068" />
<glyph unicode="&#x2004;" horiz-adv-x="689" />
<glyph unicode="&#x2005;" horiz-adv-x="517" />
<glyph unicode="&#x2006;" horiz-adv-x="344" />
<glyph unicode="&#x2007;" horiz-adv-x="344" />
<glyph unicode="&#x2008;" horiz-adv-x="258" />
<glyph unicode="&#x2009;" horiz-adv-x="413" />
<glyph unicode="&#x200a;" horiz-adv-x="114" />
<glyph unicode="&#x2010;" horiz-adv-x="1060" d="M113 602q0 60 43 104t104 44h541q61 0 104 -44t43 -104q0 -62 -43 -104.5t-104 -42.5h-541q-62 0 -104.5 42.5t-42.5 104.5z" />
<glyph unicode="&#x2011;" horiz-adv-x="1060" d="M113 602q0 60 43 104t104 44h541q61 0 104 -44t43 -104q0 -62 -43 -104.5t-104 -42.5h-541q-62 0 -104.5 42.5t-42.5 104.5z" />
<glyph unicode="&#x2012;" horiz-adv-x="1060" d="M113 602q0 60 43 104t104 44h541q61 0 104 -44t43 -104q0 -62 -43 -104.5t-104 -42.5h-541q-62 0 -104.5 42.5t-42.5 104.5z" />
<glyph unicode="&#x2013;" horiz-adv-x="1024" d="M0 602q0 63 44 106.5t106 43.5h724q62 0 106 -43.5t44 -106.5q0 -61 -44 -104t-106 -43h-724q-62 0 -106 43t-44 104z" />
<glyph unicode="&#x2014;" horiz-adv-x="2048" d="M0 602q0 63 44 106.5t106 43.5h1748q62 0 106 -43.5t44 -106.5q0 -61 -44 -104t-106 -43h-1748q-62 0 -106 43t-44 104z" />
<glyph unicode="&#x2018;" horiz-adv-x="577" d="M102 1108q0 72 25 139.5t62.5 113.5t80 81t77 52t54.5 17q27 0 46.5 -19t19.5 -48q0 -19 -10.5 -34.5t-27.5 -29t-34.5 -29t-34 -41.5t-24.5 -59q61 -15 100 -63.5t39 -112.5q0 -76 -54 -128t-130 -52q-84 0 -136.5 59t-52.5 154z" />
<glyph unicode="&#x2019;" horiz-adv-x="577" d="M102 1331q0 76 54.5 128t130.5 52q83 0 135.5 -59t52.5 -154q0 -72 -25 -139.5t-62.5 -113.5t-80 -81t-77 -52t-54.5 -17q-27 0 -46 19.5t-19 48.5q0 19 10.5 34.5t27 29t34 28.5t34 41t25.5 59q-61 15 -100.5 63.5t-39.5 112.5z" />
<glyph unicode="&#x201a;" horiz-adv-x="577" d="M102 170q0 76 54.5 128t130.5 52q83 0 135.5 -59t52.5 -154q0 -72 -25 -139t-62.5 -113t-80 -81t-77 -51.5t-54.5 -16.5q-27 0 -46 18t-19 47q0 19 10.5 34.5t27 29t34 29t34 41.5t25.5 59q-61 15 -100.5 63.5t-39.5 112.5z" />
<glyph unicode="&#x201c;" horiz-adv-x="1077" d="M102 1108q0 72 25 139.5t62.5 113.5t80 81t77 52t54.5 17q27 0 46.5 -19t19.5 -48q0 -19 -10.5 -34.5t-27.5 -29t-34.5 -29t-34 -41.5t-24.5 -59q61 -15 100 -63.5t39 -112.5q0 -76 -54 -128t-130 -52q-84 0 -136.5 59t-52.5 154zM604 1108q0 72 25 139.5t62.5 113.5 t80 81t77 52t54.5 17q26 0 46 -19.5t20 -47.5q0 -23 -16.5 -43t-38 -34t-45 -45t-33.5 -71q61 -15 100 -63.5t39 -112.5q0 -76 -54 -128t-130 -52q-82 0 -134.5 59t-52.5 154z" />
<glyph unicode="&#x201d;" horiz-adv-x="1077" d="M102 1331q0 76 54.5 128t130.5 52q83 0 135.5 -59t52.5 -154q0 -72 -25 -139.5t-62.5 -113.5t-80 -81t-77 -52t-54.5 -17q-27 0 -46 19.5t-19 48.5q0 19 10.5 34.5t27 29t34 28.5t34 41t25.5 59q-61 15 -100.5 63.5t-39.5 112.5zM604 1331q0 76 54 128t128 52 q84 0 136.5 -59t52.5 -154q0 -72 -25 -139.5t-62.5 -113.5t-80 -81t-77 -52t-54.5 -17q-26 0 -46 20t-20 48q0 23 16.5 42.5t38 34t44 44.5t32.5 71q-60 15 -98.5 64t-38.5 112z" />
<glyph unicode="&#x201e;" horiz-adv-x="1073" d="M102 170q0 76 54.5 128t130.5 52q83 0 135.5 -59t52.5 -154q0 -72 -25 -139t-62.5 -113t-80 -81t-77 -51.5t-54.5 -16.5q-27 0 -46 18t-19 47q0 19 10.5 34.5t27 29t34 29t34 41.5t25.5 59q-61 15 -100.5 63.5t-39.5 112.5zM598 170q0 76 54 128t130 52q84 0 136.5 -59 t52.5 -154q0 -72 -25 -139t-62.5 -113t-80 -81t-77 -51.5t-54.5 -16.5q-27 0 -46.5 18.5t-19.5 46.5q0 19 10.5 34.5t27 29t34 29t34 41.5t25.5 59q-61 15 -100 63.5t-39 112.5z" />
<glyph unicode="&#x2020;" horiz-adv-x="1214" d="M92 950q0 59 41.5 100.5t99.5 41.5h209v254q0 68 48.5 116.5t117.5 48.5q68 0 117 -49t49 -116v-254h207q58 0 99.5 -41.5t41.5 -100.5q0 -58 -41 -99.5t-100 -41.5h-207v-662q0 -69 -49 -117t-117 -48q-69 0 -117.5 48t-48.5 117v662h-209q-59 0 -100 41.5t-41 99.5z " />
<glyph unicode="&#x2021;" horiz-adv-x="1030" d="M0 154q0 58 41 99.5t100 41.5h209v514h-209q-59 0 -100 41.5t-41 99.5q0 59 41.5 100.5t99.5 41.5h209v254q0 68 48.5 116.5t117.5 48.5q68 0 117 -49t49 -116v-254h207q58 0 99.5 -41.5t41.5 -100.5q0 -58 -41 -99.5t-100 -41.5h-207v-514h207q59 0 100 -41.5t41 -99.5 q0 -59 -41.5 -100.5t-99.5 -41.5h-207v-254q0 -67 -49 -115.5t-117 -48.5q-69 0 -117.5 48t-48.5 116v254h-209q-58 0 -99.5 41.5t-41.5 100.5z" />
<glyph unicode="&#x2022;" horiz-adv-x="1021" d="M113 686q0 146 103 249t249 103t249 -103t103 -249t-103 -249t-249 -103t-249 103t-103 249z" />
<glyph unicode="&#x2026;" horiz-adv-x="2004" d="M123 205q0 94 65.5 159.5t157.5 65.5t157.5 -65.5t65.5 -159.5q0 -92 -65.5 -157.5t-157.5 -65.5t-157.5 65.5t-65.5 157.5zM778 205q0 94 65.5 159.5t157.5 65.5q93 0 158.5 -66t65.5 -159q0 -92 -66 -157.5t-158 -65.5t-157.5 65.5t-65.5 157.5zM1434 205 q0 94 65.5 159.5t157.5 65.5t157.5 -65.5t65.5 -159.5q0 -92 -65.5 -157.5t-157.5 -65.5t-157.5 65.5t-65.5 157.5z" />
<glyph unicode="&#x202f;" horiz-adv-x="413" />
<glyph unicode="&#x2030;" horiz-adv-x="1824" d="M102 1159v121q0 112 71 171.5t175 59.5q101 0 171.5 -59.5t70.5 -171.5v-121q0 -113 -70 -173t-172 -60q-104 0 -175 59.5t-71 173.5zM291 1155q0 -65 57 -65q55 0 55 65v125q0 66 -55 66q-57 0 -57 -66v-125zM293 102l502 1352q14 34 47.5 49t68.5 2q34 -13 49 -46.5 t3 -67.5l-504 -1352q-12 -35 -46 -50t-69 -1q-34 12 -48.5 45.5t-2.5 68.5zM668 213v121q0 114 70 173.5t173 59.5q104 0 175 -59.5t71 -173.5v-121q0 -112 -71 -171.5t-175 -59.5q-103 0 -173 59.5t-70 171.5zM856 211q0 -66 55 -66q58 0 58 66v125q0 65 -58 65 q-55 0 -55 -65v-125zM1233 213v121q0 114 71 173.5t175 59.5t173.5 -59.5t69.5 -173.5v-121q0 -112 -69.5 -171.5t-173.5 -59.5t-175 59.5t-71 171.5zM1423 211q0 -66 56 -66q57 0 57 66v125q0 65 -57 65q-56 0 -56 -65v-125z" />
<glyph unicode="&#x2039;" horiz-adv-x="800" d="M61 575q0 57 43 103l353 362q41 44 102.5 45.5t104.5 -41.5q44 -41 45.5 -102.5t-41.5 -105.5l-252 -261l252 -262q43 -43 41.5 -104.5t-45.5 -102.5q-43 -42 -104 -41t-103 44l-353 364q-43 46 -43 102z" />
<glyph unicode="&#x203a;" horiz-adv-x="800" d="M92 209q-1 62 41 104l252 262l-252 261q-42 44 -41 105.5t45 102.5q43 43 104.5 41.5t104.5 -45.5l350 -362q43 -46 43 -103q0 -56 -43 -102l-350 -364q-43 -43 -104.5 -44t-104.5 41q-44 41 -45 103z" />
<glyph unicode="&#x2044;" horiz-adv-x="886" d="M51 69.5q-22 54.5 0 108.5l524 1247q23 54 77 75.5t108 -1.5q54 -22 76 -76t0 -108l-525 -1247q-23 -54 -76.5 -76t-107.5 0q-54 23 -76 77.5z" />
<glyph unicode="&#x205f;" horiz-adv-x="517" />
<glyph unicode="&#x20ac;" d="M37 584q0 44 32 76t76 32h19v103h-19q-44 0 -76 32t-32 78q0 44 32 76.5t76 32.5h29q31 232 165 364.5t384 132.5q83 0 169.5 -22t135.5 -59q72 -54 72 -123q0 -59 -40.5 -103.5t-109.5 -44.5q-34 0 -96 27q-58 28 -131 28q-86 0 -140 -47.5t-75 -152.5h182 q46 0 78.5 -32.5t32.5 -76.5q0 -46 -32.5 -78t-78.5 -32h-194v-103h194q46 0 78.5 -32t32.5 -76q0 -46 -32.5 -78.5t-78.5 -32.5h-182q21 -105 72.5 -148.5t134.5 -43.5q79 0 151 32q52 25 92 25q56 0 96 -38.5t40 -98.5q0 -75 -66 -127q-54 -44 -146.5 -68t-166.5 -24 q-245 0 -377.5 129t-163.5 362h-29q-44 0 -76 32.5t-32 78.5z" />
<glyph unicode="&#x2122;" horiz-adv-x="1499" d="M61 1378q0 34 24.5 59t59.5 25h408q35 0 59.5 -25t24.5 -59t-24.5 -59t-59.5 -25h-119v-465q0 -37 -24.5 -61.5t-61.5 -24.5q-35 0 -59.5 24.5t-24.5 61.5v465h-119q-35 0 -59.5 25t-24.5 59zM690 821v570q0 35 24 57t58 22q31 0 50 -11.5t32 -39.5l180 -358l178 358 q25 51 84 51q33 0 56.5 -22.5t23.5 -56.5v-570q0 -32 -23 -55t-55 -23q-34 0 -56.5 22.5t-22.5 55.5v303l-109 -221q-24 -49 -76 -49q-54 0 -78 49l-108 221v-303q0 -32 -23 -55t-55 -23q-34 0 -57 23t-23 55z" />
<glyph unicode="&#x25fc;" horiz-adv-x="1095" d="M0 0v1096h1096v-1096h-1096z" />
</font>
</defs>
</svg>
