<?xml version="1.0" encoding="utf-8"?>
<!-- Generator: Adobe Illustrator 18.1.0, SVG Export Plug-In . SVG Version: 6.00 Build 0)  -->
<!DOCTYPE svg PUBLIC "-//W3C//DTD SVG 1.1//EN" "http://www.w3.org/Graphics/SVG/1.1/DTD/svg11.dtd">
<svg version="1.1" xmlns="http://www.w3.org/2000/svg" xmlns:xlink="http://www.w3.org/1999/xlink" x="0px" y="0px"
	 viewBox="0 0 160 160" enable-background="new 0 0 160 160" xml:space="preserve">
<g id="город">
	<g id="Слой_2">
	</g>
</g>
<g id="образование">
</g>
<g id="др">
	<circle fill="#F2F2F2" cx="80" cy="80" r="80"/>
	<g>
		<path fill="none" stroke="#47A2C6" stroke-width="4" stroke-linecap="round" stroke-linejoin="round" stroke-miterlimit="10" d="
			M61.5,97.9V60.3c0-4.7-3.9-8.6-8.6-8.6h0c-4.7,0-8.6,3.9-8.6,8.6"/>
		<path fill="none" stroke="#47A2C6" stroke-width="4" stroke-linecap="round" stroke-linejoin="round" stroke-miterlimit="10" d="
			M78.8,97.9V60.3c0-4.7-3.9-8.6-8.6-8.6h0c-4.7,0-8.6,3.9-8.6,8.6v37.6"/>
		<path fill="none" stroke="#47A2C6" stroke-width="4" stroke-linecap="round" stroke-linejoin="round" stroke-miterlimit="10" d="
			M96,91.2V60.3c0-4.7-3.9-8.6-8.6-8.6h0c-4.7,0-8.6,3.9-8.6,8.6v37.6"/>
		<path fill="none" stroke="#47A2C6" stroke-width="4" stroke-linecap="round" stroke-linejoin="round" stroke-miterlimit="10" d="
			M113.9,106.2c-0.9,0.2-1.8,0.2-2.7,0.2c-8.4,0-15.2-6.8-15.2-15.2"/>
		<path fill="none" stroke="#47A2C6" stroke-width="4" stroke-linecap="round" stroke-linejoin="round" stroke-miterlimit="10" d="
			M88.8,108.3c0,0,13.1-7.6,18.8-14.5c8.6-10.5,8.1-21.6,8.1-21.6c0-5.4-4.4-9.8-9.8-9.8c-5.4,0-9.8,4.4-9.8,9.8"/>
	</g>
</g>
</svg>
