<?xml version="1.0" encoding="utf-8"?>
<!-- Generator: Adobe Illustrator 18.1.0, SVG Export Plug-In . SVG Version: 6.00 Build 0)  -->
<!DOCTYPE svg PUBLIC "-//W3C//DTD SVG 1.1//EN" "http://www.w3.org/Graphics/SVG/1.1/DTD/svg11.dtd">
<svg version="1.1" xmlns="http://www.w3.org/2000/svg" xmlns:xlink="http://www.w3.org/1999/xlink" x="0px" y="0px"
	 viewBox="0 0 160 160" enable-background="new 0 0 160 160" xml:space="preserve">
<g id="город">
	<g id="Слой_2">
	</g>
</g>
<g id="образование">
</g>
<g id="др">
	<circle fill="#F2F2F2" cx="80" cy="80" r="80"/>
	<g>
		<path fill="none" stroke="#47A2C6" stroke-width="4" stroke-linecap="round" stroke-linejoin="round" stroke-miterlimit="10" d="
			M37,55.3c2.3-3.6,6.3-6,10.9-6c7.1,0,12.8,5.7,12.8,12.8c0,0,1.4,31.3,1.4,31.3l1.4-31.3c0-7.1,5.7-12.8,12.8-12.8
			c4.8,0,8.9,2.6,11.1,6.4c0,0,3.1,5,3.3,20.5c0.2,13,8,20.4,8,20.4"/>
		
			<circle fill="none" stroke="#47A2C6" stroke-width="4" stroke-linecap="round" stroke-linejoin="round" stroke-miterlimit="10" cx="108.9" cy="87" r="14.1"/>
		<path fill="none" stroke="#47A2C6" stroke-width="4" stroke-linecap="round" stroke-linejoin="round" stroke-miterlimit="10" d="
			M70.4,110.7c0,0,8.8-0.1,16.5-5.8c7.9-5.8,7.9-18,7.9-18"/>
	</g>
</g>
</svg>
