<?xml version="1.0" encoding="utf-8"?>
<!-- Generator: Adobe Illustrator 18.1.0, SVG Export Plug-In . SVG Version: 6.00 Build 0)  -->
<!DOCTYPE svg PUBLIC "-//W3C//DTD SVG 1.1//EN" "http://www.w3.org/Graphics/SVG/1.1/DTD/svg11.dtd">
<svg version="1.1" xmlns="http://www.w3.org/2000/svg" xmlns:xlink="http://www.w3.org/1999/xlink" x="0px" y="0px"
	 viewBox="0 0 160 160" enable-background="new 0 0 160 160" xml:space="preserve">
<g id="город">
	<g id="Слой_2">
	</g>
</g>
<g id="образование">
</g>
<g id="др">
	<circle fill="#F2F2F2" cx="80" cy="80" r="80"/>
	<g>
		<path fill="none" stroke="#47A2C6" stroke-width="4" stroke-linecap="round" stroke-linejoin="round" stroke-miterlimit="10" d="
			M105.7,66.6c-5.5-5.7-14.6-9.5-24.9-9.5c-14,0-25.9,6.9-29.3,16.4"/>
		<path fill="none" stroke="#47A2C6" stroke-width="4" stroke-linecap="round" stroke-linejoin="round" stroke-miterlimit="10" d="
			M108.5,73.4c0,5.3-4.3,9.5-9.5,9.5c-5.3,0-9.5-4.3-9.5-9.5c0-5.3,4.3-9.5,9.5-9.5c2.6,0,5,1.1,6.7,2.8
			C107.4,68.4,108.5,70.7,108.5,73.4z"/>
		<path fill="none" stroke="#47A2C6" stroke-width="4" stroke-linecap="round" stroke-linejoin="round" stroke-miterlimit="10" d="
			M54.3,93.4c5.5,5.7,14.6,9.5,24.9,9.5c14,0,25.9-6.9,29.3-16.4"/>
		<path fill="none" stroke="#47A2C6" stroke-width="4" stroke-linecap="round" stroke-linejoin="round" stroke-miterlimit="10" d="
			M51.5,86.6c0-5.3,4.3-9.5,9.5-9.5s9.5,4.3,9.5,9.5c0,5.3-4.3,9.5-9.5,9.5c-2.6,0-5-1.1-6.7-2.8C52.6,91.6,51.5,89.3,51.5,86.6z"/>
	</g>
</g>
</svg>
