<?xml version="1.0" encoding="utf-8"?>
<!-- Generator: Adobe Illustrator 18.1.0, SVG Export Plug-In . SVG Version: 6.00 Build 0)  -->
<!DOCTYPE svg PUBLIC "-//W3C//DTD SVG 1.1//EN" "http://www.w3.org/Graphics/SVG/1.1/DTD/svg11.dtd">
<svg version="1.1" xmlns="http://www.w3.org/2000/svg" xmlns:xlink="http://www.w3.org/1999/xlink" x="0px" y="0px"
	 viewBox="0 0 160 160" enable-background="new 0 0 160 160" xml:space="preserve">
<g id="город">
	<g id="Слой_2">
	</g>
</g>
<g id="образование">
	<circle fill="#F2F2F2" cx="80" cy="80" r="80"/>
	<g>
		
			<polyline fill="none" stroke="#47A2C6" stroke-width="4" stroke-linecap="round" stroke-linejoin="round" stroke-miterlimit="10" points="
			39.9,71.1 18.8,62.5 80.6,36.4 142.4,62.5 121.1,71.1 		"/>
		
			<ellipse fill="none" stroke="#47A2C6" stroke-width="4" stroke-linecap="round" stroke-linejoin="round" stroke-miterlimit="10" cx="80.6" cy="89.6" rx="40.5" ry="9"/>
		<path fill="none" stroke="#47A2C6" stroke-width="4" stroke-linecap="round" stroke-linejoin="round" stroke-miterlimit="10" d="
			M121.1,89.6V62.5c0-5-18.1-9-40.5-9c-22.4,0-40.5,4-40.5,9v27.1"/>
		<path fill="none" stroke="#47A2C6" stroke-width="4" stroke-linecap="round" stroke-linejoin="round" stroke-miterlimit="10" d="
			M40.1,84c0-5,18.1-9,40.5-9s40.5,4,40.5,9"/>
		
			<line fill="none" stroke="#47A2C6" stroke-width="4" stroke-linecap="round" stroke-linejoin="round" stroke-miterlimit="10" x1="18.8" y1="62.5" x2="18.8" y2="89.8"/>
		
			<circle fill="none" stroke="#47A2C6" stroke-width="4" stroke-linecap="round" stroke-linejoin="round" stroke-miterlimit="10" cx="18.8" cy="93.8" r="4"/>
		<path fill="none" stroke="#47A2C6" stroke-width="4" stroke-linecap="round" stroke-linejoin="round" stroke-miterlimit="10" d="
			M18.8,97.8c-2.2,0-4,1.8-4,4v14.3c0,2.2,1.8,4,4,4s4-1.8,4-4v-14.3C22.8,99.6,21,97.8,18.8,97.8z"/>
	</g>
	<circle fill="none" cx="80" cy="80" r="80"/>
</g>
<g id="др">
</g>
</svg>
