<?xml version="1.0" encoding="utf-8"?>
<!-- Generator: Adobe Illustrator 18.1.0, SVG Export Plug-In . SVG Version: 6.00 Build 0)  -->
<!DOCTYPE svg PUBLIC "-//W3C//DTD SVG 1.1//EN" "http://www.w3.org/Graphics/SVG/1.1/DTD/svg11.dtd">
<svg version="1.1" xmlns="http://www.w3.org/2000/svg" xmlns:xlink="http://www.w3.org/1999/xlink" x="0px" y="0px"
	 viewBox="0 0 160 160" enable-background="new 0 0 160 160" xml:space="preserve">
<g id="город">
	<g id="Слой_2">
	</g>
</g>
<g id="образование">
	<circle fill="#F2F2F2" cx="80" cy="80" r="80"/>
	<g>
		
			<polyline fill="none" stroke="#47A2C6" stroke-width="3" stroke-linecap="round" stroke-linejoin="round" stroke-miterlimit="10" points="
			78.1,65.7 99.4,44.3 116.8,39.3 111.7,56.6 90.4,78 		"/>
		
			<polyline fill="none" stroke="#47A2C6" stroke-width="3" stroke-linecap="round" stroke-linejoin="round" stroke-miterlimit="10" points="
			78.1,90.3 51.4,116.9 39.1,104.6 65.7,78 		"/>
		
			<line fill="none" stroke="#47A2C6" stroke-width="3" stroke-linecap="round" stroke-linejoin="round" stroke-miterlimit="10" x1="109" y1="41.5" x2="114.5" y2="47.1"/>
		<path fill="none" stroke="#47A2C6" stroke-width="3" stroke-linecap="round" stroke-linejoin="round" stroke-miterlimit="10" d="
			M105.6,56.5c1.6-1.6,1.6-4.3,0-6c-1.6-1.6-4.3-1.6-6,0"/>
		
			<line fill="none" stroke="#47A2C6" stroke-width="3" stroke-linecap="round" stroke-linejoin="round" stroke-miterlimit="10" x1="74.9" y1="87.1" x2="48.3" y2="113.8"/>
		<path fill="none" stroke="#47A2C6" stroke-width="3" stroke-linecap="round" stroke-linejoin="round" stroke-miterlimit="10" d="
			M111.7,56.6c-0.1-0.1-0.1-0.1-0.2-0.2c-1.6-1.6-4.3-1.6-6,0L87,75"/>
		
			<line fill="none" stroke="#47A2C6" stroke-width="3" stroke-linecap="round" stroke-linejoin="round" stroke-miterlimit="10" x1="68.9" y1="81.2" x2="42.3" y2="107.8"/>
		<path fill="none" stroke="#47A2C6" stroke-width="3" stroke-linecap="round" stroke-linejoin="round" stroke-miterlimit="10" d="
			M99.4,44.3c0.1,0.1,0.1,0.1,0.2,0.2c1.6,1.6,1.6,4.3,0,6L81,69.1"/>
	</g>
	<g>
		<path fill="none" stroke="#47A2C6" stroke-width="3" stroke-linecap="round" stroke-linejoin="round" stroke-miterlimit="10" d="
			M53,46.6l-4.1-6.8c0,0-3.8-0.5-5.9-1.5c-2.4-1.1-5.5-3.8-5.5-3.8L36,36.1c0,0-1.5,1.5-1.5,1.5s2.7,3,3.8,5.5
			c1,2.1,1.5,5.9,1.5,5.9l6.8,4.1"/>
		<circle fill="#47A2C6" cx="45.9" cy="46" r="3.2"/>
		
			<line fill="none" stroke="#47A2C6" stroke-width="3" stroke-linecap="round" stroke-linejoin="round" stroke-miterlimit="10" x1="36" y1="36.1" x2="45.9" y2="46"/>
		
			<rect x="45.1" y="49.1" transform="matrix(0.7071 -0.7071 0.7071 0.7071 -21.4833 51.6822)" fill="none" stroke="#47A2C6" stroke-width="3" stroke-linecap="round" stroke-linejoin="round" stroke-miterlimit="10" width="13" height="5.4"/>
		<path fill="none" stroke="#47A2C6" stroke-width="3" stroke-linecap="round" stroke-linejoin="round" stroke-miterlimit="10" d="
			M120.3,113.5l-7,7c-1.4,1.4-3.7,1.4-5.1,0L50.1,62.3c-1.4-1.4-1.4-3.7,0-5.1l7-7c1.4-1.4,3.7-1.4,5.1,0l58.2,58.2
			C121.8,109.8,121.8,112.1,120.3,113.5z"/>
		
			<line fill="none" stroke="#47A2C6" stroke-width="3" stroke-linecap="round" stroke-linejoin="round" stroke-miterlimit="10" x1="103.9" y1="116.1" x2="116" y2="104"/>
		<path fill="none" stroke="#47A2C6" stroke-width="3" stroke-linecap="round" stroke-linejoin="round" stroke-miterlimit="10" d="
			M103.9,116.1L103.9,116.1c-2.2,2.2-5.9,2.2-8.1,0L78.4,98.8"/>
	</g>
</g>
<g id="др">
</g>
</svg>
