<?xml version="1.0" encoding="utf-8"?>
<!-- Generator: Adobe Illustrator 18.1.0, SVG Export Plug-In . SVG Version: 6.00 Build 0)  -->
<!DOCTYPE svg PUBLIC "-//W3C//DTD SVG 1.1//EN" "http://www.w3.org/Graphics/SVG/1.1/DTD/svg11.dtd">
<svg version="1.1" xmlns="http://www.w3.org/2000/svg" xmlns:xlink="http://www.w3.org/1999/xlink" x="0px" y="0px"
	 viewBox="0 0 160 160" enable-background="new 0 0 160 160" xml:space="preserve">
<g id="город">
	<g id="Слой_2">
	</g>
</g>
<g id="образование">
	<circle fill="#F2F2F2" cx="80" cy="80" r="80"/>
	<g>
		<path fill="none" stroke="#47A2C6" stroke-width="3" stroke-linecap="round" stroke-linejoin="round" stroke-miterlimit="10" d="
			M39.6,99c0,0,33.8,0,36.2,0s4.4,2,4.4,4.4V51.2c0-2.4-2-4.4-4.4-4.4H39.6V108"/>
		
			<polyline fill="none" stroke="#47A2C6" stroke-width="3" stroke-linecap="round" stroke-linejoin="round" stroke-miterlimit="10" points="
			80.3,103.4 80.3,108 35,108 35,51.4 39.6,51.4 		"/>
	</g>
	<g>
		<path fill="none" stroke="#47A2C6" stroke-width="3" stroke-linecap="round" stroke-linejoin="round" stroke-miterlimit="10" d="
			M99.2,46.8h21.7V99c0,0-33.8,0-36.2,0s-4.4,2-4.4,4.4V51.2c0-2.4,2-4.4,4.4-4.4h3.5"/>
		
			<polyline fill="none" stroke="#47A2C6" stroke-width="3" stroke-linecap="round" stroke-linejoin="round" stroke-miterlimit="10" points="
			80.3,103.4 80.3,108 125.5,108 125.5,51.4 120.9,51.4 		"/>
		
			<line fill="none" stroke="#47A2C6" stroke-width="3" stroke-linecap="round" stroke-linejoin="round" stroke-miterlimit="10" x1="120.9" y1="99" x2="120.9" y2="108"/>
	</g>
	
		<polygon fill="none" stroke="#47A2C6" stroke-width="3" stroke-linecap="round" stroke-linejoin="round" stroke-miterlimit="10" points="
		99.2,66.7 93.7,62.7 88.2,66.7 88.2,43.8 99.2,43.8 	"/>
</g>
<g id="др">
</g>
</svg>
