<?xml version="1.0" encoding="utf-8"?>
<!-- Generator: Adobe Illustrator 18.1.0, SVG Export Plug-In . SVG Version: 6.00 Build 0)  -->
<!DOCTYPE svg PUBLIC "-//W3C//DTD SVG 1.1//EN" "http://www.w3.org/Graphics/SVG/1.1/DTD/svg11.dtd">
<svg version="1.1" xmlns="http://www.w3.org/2000/svg" xmlns:xlink="http://www.w3.org/1999/xlink" x="0px" y="0px"
	 viewBox="0 0 160 160" enable-background="new 0 0 160 160" xml:space="preserve">
<g id="город">
	<g id="Слой_2">
	</g>
</g>
<g id="образование">
	<circle fill="#F2F2F2" cx="80" cy="80" r="80"/>
</g>
<g id="др">
	<path fill="none" stroke="#47A2C6" stroke-width="3" stroke-linecap="round" stroke-linejoin="round" stroke-miterlimit="10" d="
		M107.9,78.8c0-0.9,0.1-1.8,0.1-2.7V45.8H80c0,0-28,0-28,0v30.3c0,1.1,0,2.1,0.1,3.2"/>
	<path fill="none" stroke="#47A2C6" stroke-width="3" stroke-linecap="round" stroke-linejoin="round" stroke-miterlimit="10" d="
		M55.8,94.1c7.6,16.5,24,22.2,24,22.2h0.4c0,0,16.5-5.7,24-22.3"/>
	<g>
		<g>
			<path fill="none" stroke="#47A2C6" stroke-width="3" stroke-linecap="round" stroke-linejoin="round" stroke-miterlimit="10" d="
				M35,94.2c-2.2,0-4-1.8-4-4"/>
			<g>
				
					<line fill="none" stroke="#47A2C6" stroke-width="3" stroke-linecap="round" stroke-linejoin="round" stroke-miterlimit="10" x1="31" y1="90.2" x2="31" y2="75.2"/>
				
					<line fill="none" stroke="#47A2C6" stroke-width="3" stroke-linecap="round" stroke-linejoin="round" stroke-miterlimit="10" x1="125" y1="94.2" x2="35" y2="94.2"/>
				
					<line fill="none" stroke="#47A2C6" stroke-width="3" stroke-linecap="round" stroke-linejoin="round" stroke-miterlimit="10" x1="35" y1="79.2" x2="125" y2="79.2"/>
				
					<path fill="none" stroke="#47A2C6" stroke-width="3" stroke-linecap="round" stroke-linejoin="round" stroke-miterlimit="10" d="
					M35,79.2c-2.2,0-4-1.8-4-4s1.8-4,4-4h8c2.2,0,4-1.8,4-4s-1.8-4-4-4"/>
				
					<polyline fill="none" stroke="#47A2C6" stroke-width="3" stroke-linecap="round" stroke-linejoin="round" stroke-miterlimit="10" points="
					43,63.2 17.9,63.2 23.1,70.7 17.9,78.2 31.2,78.2 				"/>
				
					<line fill="none" stroke="#47A2C6" stroke-width="3" stroke-linecap="round" stroke-linejoin="round" stroke-miterlimit="10" x1="47" y1="67.2" x2="47" y2="79.2"/>
			</g>
		</g>
		<g>
			<path fill="none" stroke="#47A2C6" stroke-width="3" stroke-linecap="round" stroke-linejoin="round" stroke-miterlimit="10" d="
				M125,94.2c2.2,0,4-1.8,4-4"/>
			<g>
				
					<line fill="none" stroke="#47A2C6" stroke-width="3" stroke-linecap="round" stroke-linejoin="round" stroke-miterlimit="10" x1="129" y1="90.2" x2="129" y2="75.2"/>
				
					<path fill="none" stroke="#47A2C6" stroke-width="3" stroke-linecap="round" stroke-linejoin="round" stroke-miterlimit="10" d="
					M125,79.2c2.2,0,4-1.8,4-4s-1.8-4-4-4h-8c-2.2,0-4-1.8-4-4s1.8-4,4-4"/>
				
					<polyline fill="none" stroke="#47A2C6" stroke-width="3" stroke-linecap="round" stroke-linejoin="round" stroke-miterlimit="10" points="
					117,63.2 142.1,63.2 136.9,70.7 142.1,78.2 128.8,78.2 				"/>
				
					<line fill="none" stroke="#47A2C6" stroke-width="3" stroke-linecap="round" stroke-linejoin="round" stroke-miterlimit="10" x1="113" y1="67.2" x2="113" y2="79.2"/>
			</g>
		</g>
	</g>
</g>
</svg>
